<svg xmlns="http://www.w3.org/2000/svg" xmlns:xlink="http://www.w3.org/1999/xlink" x="0" y="0" version="1.1" viewBox="0 0 750 195.7" xml:space="preserve" style="enable-background:new 0 0 750 195.7"><style type="text/css">.st0{fill:#de7a68}.st1{fill:#f9c76e}.st2{stroke:#2f3d8a;stroke-linecap:round;stroke-linejoin:round;stroke-miterlimit:10}.st2,.st3{fill:#fff}.st4{fill:none;stroke:#2f3d8a;stroke-linecap:round;stroke-linejoin:round;stroke-miterlimit:10}.st5{fill:#202738}.st6,.st7{fill:#8c5050;stroke:#2f3d8a;stroke-linecap:round;stroke-linejoin:round;stroke-miterlimit:10}.st7{fill:#4b5582}.st8{fill:#2f3d8a}.st9{fill:#de7a68;stroke:#2f3d8a;stroke-linecap:round;stroke-linejoin:round;stroke-miterlimit:10}.st10{fill:#ffccd1}.st11{stroke:#2f3d8a;stroke-linecap:round;stroke-linejoin:round;stroke-miterlimit:10}.st11,.st12{fill:#9e6a5a}.st13{fill:#d3e0ed}.st14{fill:#246eab}.st15{fill:#58a2de}.st16{fill:none;stroke:#ff8e98;stroke-width:.75;stroke-linecap:round;stroke-linejoin:round;stroke-miterlimit:10}.st17{fill:#4b5582}.st18{fill:#ffb1a4}.st19,.st20{fill:#465578;stroke:#2f3d8a;stroke-linecap:round;stroke-linejoin:round;stroke-miterlimit:10}.st20{fill:#1982c7}.st21{fill:#a0d6fa}.st22{fill:none;stroke:#2f3d8a;stroke-width:.5;stroke-linecap:round;stroke-linejoin:round;stroke-miterlimit:10}.st23{fill:#ba364a}.st24{fill:#a3d67a}.st24,.st25{stroke:#2f3d8a;stroke-linecap:round;stroke-linejoin:round;stroke-miterlimit:10}.st25,.st26{fill:#ff8e98}.st27{fill:#465578}.st28{fill:#ed728d;stroke:#2f3d8a;stroke-linecap:round;stroke-linejoin:round;stroke-miterlimit:10}.st29{fill:#ffd2ba}.st30{fill:#ed728d}.st31{fill:none;stroke:#d44e4e;stroke-width:.75;stroke-linecap:round;stroke-linejoin:round;stroke-miterlimit:10}</style><g id="BACKGROUND"><rect width="750" height="500" class="st0"/></g><g id="OBJECTS"><g><g><polygon points="254 448.4 182.5 500 299.3 500 343.5 444.8 306.2 455.8 261.4 485.3 287.3 442.2" class="st1"/><polygon points="496.2 448.4 567.7 500 450.9 500 406.7 444.8 444 455.8 488.8 485.3 462.8 442.2" class="st1"/><polygon points="109.1 443.8 0 469.5 0 500 133.5 500 177.6 448.3 135.2 460.8 88.8 479.5 128.2 442.1" class="st1"/><polygon points="640.9 443.8 750 469.5 750 500 616.5 500 572.4 448.3 614.8 460.8 661.2 479.5 621.8 442.1" class="st1"/></g></g><g><g><g><path d="M91.1,276c0,0,1.8,4.8,2.3,6.1s1.3,2.2,2.1,3c0.8,0.8,2.2,2.3,2.6,2.5c0.3,0.3,1.2-0.1,0.8-1.8 c-0.4-1.7-1.9-3.3-2.4-4.1c-0.5-0.8-1.6-5.7-1.6-5.7H91.1z" class="st2"/><path d="M93.6,276.3c0,0,2.5,4.4,3.3,5.7c0.8,1.3,1.7,2,2.6,2.6c0.9,0.7,2.6,1.9,2.9,2.1c0.4,0.2,1.2-0.3,0.5-1.9 c-0.7-1.6-2.4-3-3.1-3.7c-0.7-0.7-2.5-5.4-2.5-5.4L93.6,276.3z" class="st2"/><path d="M95.8,274.4c0,0,2.7,4,3.6,5.2c0.8,1.1,1.7,1.8,2.6,2.3c0.9,0.6,2.6,1.6,3,1.8c0.4,0.2,1.1-0.4,0.3-1.9 c-0.8-1.5-2.5-2.7-3.2-3.3c-0.7-0.6-2.8-4.9-2.8-4.9L95.8,274.4z" class="st2"/><path d="M98,273.9c0,0,3.1,2.9,4,3.7c0.9,0.8,1.8,1.2,2.7,1.5c0.9,0.3,2.5,0.9,2.9,0.9c0.4,0.1,0.8-0.5-0.1-1.7 c-0.9-1.1-2.7-1.8-3.4-2.2c-0.7-0.4-3.3-3.7-3.3-3.7L98,273.9z" class="st2"/><path d="M104.9,123c0,0-6,50.1-7.3,64.1s-1.9,27.8-2.9,39.6S92,256.3,92,256.3s-1.9,11.3-1.9,12.2s0.8,6.3,1.1,7.9 c0.4,1.7,5.7-0.1,8-0.8s2.5-1.6,2.6-2.5c0-0.9,0.6-6.9,0.3-8.9c-0.3-2-1.5-7.4-1.5-7.4s7.7-35.6,8.8-43.9s0.8-16.8,1.1-18.8 s10.2-38.9,11.2-50.8s0.6-17.5-4.5-20.5C112,120.1,105.6,120.5,104.9,123z" class="st2"/><g><path d="M99.3,261c0,0,0,4.7-0.9,7.5c-0.9,2.8-1.7,3.2-1.8,4.6c-0.1,1.4,0.5,3.6,0.2,4.8c-0.3,1.2-2,2.5-2.1,2.2 s-0.9-3.3-1.2-4.3c-0.3-1-0.7-2.4-0.8-3.8c-0.1-1.3-0.8-5.1-1.1-7.2c-0.3-2.1-0.1-3.8,0.9-5.6C94,256.5,99,256.4,99.3,261z" class="st3"/><path d="M99.1,264.6c-0.1,1.3-0.3,2.8-0.7,3.9c-0.9,2.8-1.7,3.2-1.8,4.6c-0.1,1.4,0.5,3.6,0.2,4.8 c-0.3,1.2-2,2.5-2.1,2.2s-0.9-3.3-1.2-4.3c-0.3-1-0.7-2.4-0.8-3.8c-0.1-1.3-0.9-5.1-1.1-7.2c-0.1-0.8-0.5-2.7-0.3-3.8" class="st4"/></g></g><path d="M105.2,121.8c0,0-3.3,18.8-4.5,27.8c-1.2,9-4.3,40.3-5.1,46.1c-0.8,5.8-4.3,39.8-4.6,42s-2.1,4-1.7,5.5 s2.1,3.8,2.1,3.8s0,8.4,0,9.1c0,0.7,1.7,1,4.8,1.3c3.1,0.3,4.7-0.5,4.7-0.5l2-9.1c0,0,2.6-1.8,3.1-4c0.4-2.2,0.7-10.1,1.1-12.7 c0.4-2.6,4.3-20.1,4.6-23.9c0.3-3.8,0-10.8,0.3-12.6c0.3-1.8,9.1-40.1,10.3-53.8s-1.1-17.1-6.5-19.3 C110.4,119.5,105.2,121.8,105.2,121.8z" class="st2"/><path d="M91.5,247c0,0,6.6,1.3,11.5,0.8" class="st4"/></g><g><path d="M108.7,422.4l-4.6,10.8c0,0,8.6,3.6,14.3,1.6s9.6-7.2,9.6-7.2l-1.7-7.5L108.7,422.4z" class="st5"/><path d="M108.7,425.7c-1.3-0.4-2-0.2-2.3,0.3c-0.4,0.5-4.4,8.1-4.4,8.1s-0.5-0.1-0.9,0.2c-0.4,0.2-3.5,3.8-3.7,4 c-0.2,0.2-0.1,0.6-0.1,0.6s-5.7,4.9-6.1,5.2c-0.4,0.3-2.2,1.2-2.4,2.1c-0.2,0.9-0.3,4.6,0,6c0.3,1.4,3.3,2.8,5.7,3.9 c2.4,1.1,6.3,1.8,8.2,1.1c1.9-0.7,8.2-3.3,11.4-6.4c3.2-3,4.5-4.5,6.9-5.2c2.4-0.7,6.3-2.9,8-4.2c1.6-1.3,2.1-1.8,2.1-2.9 c0-1-0.7-3.8-0.7-4.1c-0.1-0.3-2.4-10.9-2.5-11.5c-0.1-0.6-0.6-0.7-0.6-0.7s-4.3,3.5-6.7,6.1c-2.5,2.6-3,4.4-3.9,4.7 c-0.9,0.3-0.9,0.1-0.9-0.4c0.1-0.9,0.2-2.4,0.4-3.6c0.3-1.2-0.6-2.1-1.3-2.6C114.1,426.1,110.3,426.2,108.7,425.7z" class="st6"/><path d="M89.2,445.7c-0.3,0.4,0.1,1.1,1,1.6c0.9,0.5,6.2,3,8,3.7c1.8,0.7,4.5-0.3,6.3-1.7s8.6-8.7,9.2-9.8 c1.4-2.4,2.1-6.8,2.1-6.8" class="st4"/><path d="M102,434.2c0,0,8.4,3.4,9.5,4s2.3,1.4,1.4,2.4" class="st4"/><path d="M97.3,438.9c0,0,9.4,4.3,10.3,4.8c0.9,0.4,2,0.5,2.4,0" class="st4"/><path d="M88.7,451.2c0,0,4.1,2.5,7.7,3.8s6,0.6,7.7-0.3c1.7-0.8,6.2-2.8,8.2-4.6c2-1.8,4.8-4.7,6.3-5.4 c1.5-0.7,3.1-4.4,4.8-5.3c1.7-0.9,7.2-4,7.2-4" class="st4"/></g><g><path d="M155.2,432.1l-4.6,10.8c0,0,8.6,3.6,14.3,1.6s9.6-7.2,9.6-7.2l-1.7-7.5L155.2,432.1z" class="st5"/><path d="M155.2,435.4c-1.3-0.4-2-0.2-2.3,0.3c-0.4,0.5-4.4,8.1-4.4,8.1s-0.5-0.1-0.9,0.2c-0.4,0.2-3.5,3.8-3.7,4 s-0.1,0.6-0.1,0.6s-5.7,4.9-6.1,5.2c-0.4,0.3-2.2,1.2-2.4,2.1c-0.2,0.9-0.3,4.6,0,6c0.3,1.4,3.3,2.8,5.7,3.9 c2.4,1.1,6.3,1.8,8.2,1.1c1.9-0.7,8.2-3.3,11.4-6.4c3.2-3,4.5-4.5,6.9-5.2c2.4-0.7,6.3-2.9,8-4.2c1.6-1.3,2.1-1.8,2.1-2.9 c0-1-0.7-3.8-0.7-4.1c-0.1-0.3-2.4-10.9-2.5-11.5c-0.1-0.6-0.6-0.7-0.6-0.7s-4.3,3.5-6.7,6.1c-2.5,2.6-3,4.4-3.9,4.7 c-0.9,0.3-0.9,0.1-0.9-0.4c0.1-0.9,0.2-2.4,0.4-3.6c0.3-1.2-0.6-2.1-1.3-2.6C160.6,435.7,156.8,435.9,155.2,435.4z" class="st6"/><path d="M135.7,455.4c-0.3,0.4,0.1,1.1,1,1.6c0.9,0.5,6.2,3,8,3.7c1.8,0.7,4.5-0.3,6.3-1.7c1.8-1.4,8.6-8.7,9.2-9.8 c1.4-2.4,2.1-6.8,2.1-6.8" class="st4"/><path d="M148.5,443.8c0,0,8.4,3.4,9.5,4s2.3,1.4,1.4,2.4" class="st4"/><path d="M143.8,448.6c0,0,9.4,4.3,10.3,4.8c0.9,0.4,2,0.5,2.4,0" class="st4"/><path d="M135.2,460.9c0,0,4.1,2.5,7.7,3.8s6,0.6,7.7-0.3c1.7-0.8,6.2-2.8,8.2-4.6c2-1.8,4.8-4.7,6.3-5.4 s3.1-4.4,4.8-5.3s7.2-4,7.2-4" class="st4"/></g><g><path d="M103,228.1c0,0-2.6,4.5-2.3,5.6c0.3,1.1,2.3,13.1,2.3,13.1s-0.9,74.9-1.1,78.1c-0.2,3.2,0,6.3,0.6,8.6 c0.6,2.3,6.4,61.9,6.4,61.9s-2.8,8.8-2.8,10.9s1.2,7.8,1.2,7.8s-2.1,6.8-2.1,8.3s1.7,4.7,1.7,4.7s7.3,3.4,14.3,1.8 c7-1.7,8.8-4.2,8.8-4.2l-0.8-5.4c0,0,2.2-9.8,1.8-15.2c-0.4-5.3-0.9-18-0.9-18s3.3-34.2,2.8-38.9s-3.3-18.5-3.3-18.5 s1.8-3.1,1.6-4.3c-0.2-1.2-1.5-4.6-1.5-4.6s7.6-32.5,8.7-37.9c1.1-5.4,11-29.7,10.2-52.6L103,228.1z" class="st7"/><path d="M107.3,414c0,0,2,6.5,2,6.8c0,0.3-1.6,0.1-1.6,0.1s0.4-0.7,0.3-1.6c-0.1-0.9-0.9-4.3-0.9-4.3L107.3,414z" class="st8"/><path d="M112.7,408.5c0,0,1.4,4.9,2.2,4.8s8.5-13.7,10.6-18.6c-5.1,8.1-9.8,15.5-10.3,15.9S112.7,408.5,112.7,408.5z" class="st8"/></g><g><path d="M121.4,231.5c0,0-0.2,27.7,0.1,29.7s6.1,11.8,6.1,11.8s14.9,58.7,16.5,66.6c1.6,7.9,10.2,62.5,10.1,64 s-2.6,11.3-2.3,12.3s2.3,9.2,2.3,9.2s-2.2,5.5-2.1,6.9c0.1,1.4,2.1,4.7,2.1,4.7s8.8,3,15.4,1c6.6-2,6.9-3.8,6.9-3.8l-1.7-7.5 c0,0,2.6-10.8,2.2-14.8c-0.4-3.9-2.5-14.3-2.5-14.3s1.6-34.2,0.8-40.9s-3.3-15.8-3.3-15.8s0.3-4.3,0.3-5.8s-1.3-4.7-1.3-4.7 s0.5-63.9,0.5-69.8s-0.2-24.3-0.2-26.2c0-1.8-1.7-5.2-1.7-5.2L121.4,231.5z" class="st7"/><path d="M154.2,425.1c0,0,2.3,6.5,2.2,6.8c0,0.3-1.6,0.1-1.6,0.1s0.4-0.7,0.3-1.6c-0.1-0.9-1.2-4.4-1.2-4.4 L154.2,425.1z" class="st8"/><path d="M158.9,418.2c0,0,1.6,4.8,2.4,4.7c0.7-0.1,7.9-14.1,9.7-19.1c-4.7,8.4-9.1,16-9.6,16.3 C161,420.5,158.9,418.2,158.9,418.2z" class="st8"/></g><path d="M127.6,273.1c0,0-0.4-28.5,0-41.2" class="st4"/><path d="M102.7,224.5c0,0-0.3,0.1-0.5,0.6c-0.1,0.5,0,2.7,0,3.1c0,0.3,0.3,0.8,0.7,1c0.5,0.3,7,4.4,19.7,4.8 c31.1,1.1,46-3.8,46.8-4c0.8-0.2,0.9-0.4,0.8-1.1s-0.9-3.7-0.9-3.7L102.7,224.5z" class="st9"/><g><path d="M150.8,84.6c0,0,1,22.2,1.4,23.2s25.8,16.8,25.8,17.1s-13.6,81.3-13.6,81.3l2.1,19.3c0,0-29.1,7.4-63.5-2.1 l1.6-12.6c0,0,0.7-88.9,0.8-89.1c0.1-0.3,23.2-13.6,23.2-13.6l-0.7-23.3H150.8z" class="st3"/><path d="M150.7,86.4v-0.5h-22.8l0.7,23.3l0,0l1.4,2c0,0,2.9,0,3.6,0s1.7-0.4,2.2-0.8s8.9-9.3,9.7-10.6 S150.7,86.4,150.7,86.4z" class="st10"/><path d="M150.8,84.6c0,0,1,22.2,1.4,23.2s25.8,16.8,25.8,17.1s-13.6,81.3-13.6,81.3l2.1,19.3c0,0-29.1,7.4-63.5-2.1 l1.6-12.6c0,0,0.7-88.9,0.8-89.1c0.1-0.3,23.2-13.6,23.2-13.6l-0.7-23.3H150.8z" class="st4"/></g><path d="M110.7,77.4c0,0,1.5,10.1,2.2,12.6s3.8,9.8,12.3,14.3c6.9-0.4,14.2-3.6,18.3-7.3c3.2-2.9,7.1-8.9,7.1-8.9 s8.3-6.4,10-20.7c1.7-14.3-8.5-29.8-25.5-28.9s-25.9,11.3-26.2,21.9S110.7,77.4,110.7,77.4z" class="st2"/><g><path d="M138.6,77.3c0,1.3-1,2.3-2.3,2.3c-1.3,0-2.3-1-2.3-2.3c0-1.3,1-2.3,2.3-2.3C137.5,75,138.6,76,138.6,77.3z" class="st8"/><path d="M131.6,77c1.1-1,2.2-1.6,3.9-1.6c1.9,0,3.5,1.1,3.5,1.1" class="st4"/><path d="M129.4,71.4c-0.5,0.1-0.6,0.3-0.6,0.5c0,0.2,0.3,0.9,1,1.2c0.7,0.3,1.3,0.1,2.1-0.1c0.8-0.2,3.9-1.1,5.5-1.1 c0.9,0,3,0.8,3,0.5c0-0.3-2-1.7-3.3-1.8C135.5,70.5,132.4,70.6,129.4,71.4z" class="st8"/></g><g><path d="M115.2,77.3c0,1.3,0.8,2.3,1.9,2.3c1,0,1.9-1,1.9-2.3c0-1.3-0.9-2.3-1.9-2.3C116,75,115.2,76,115.2,77.3z" class="st8"/><path d="M119.5,77c-0.9-1-1.8-1.6-3.2-1.6c-1.6,0-2.8,1.1-2.8,1.1" class="st4"/><path d="M120.8,71.4c0.4,0.1,0.5,0.3,0.5,0.5c0,0.2-0.2,0.9-0.7,1.2c-0.5,0.3-1,0.1-1.6-0.1c-0.6-0.2-3-1.1-4.1-1.1 c-0.7,0-2.3,0.7-2.3,0.5c0-0.3,1.5-1.7,2.5-1.8C116.2,70.4,118.5,70.5,120.8,71.4z" class="st8"/></g><path d="M115.4,56.1c0,0,1.5-1.8,3.3-0.5c1.8,1.3,3.8,4.9,5.3,8.3s5.3,7.2,7.2,8.4s3.4,1.2,3.6,1.2 c0,0-2.9-6.1-3.5-10.1c4.2,6.2,7.1,9,10.5,9.8c3.3,2.5,7.7,4.4,11.8,4.5l4.3,2.5c0,0,3.8-4.3,5-8.7c2.2,2.1,3.8,1.1,3.7,0.8 c-0.1-0.3-1.4-2.2-1.1-6c0.3-3.8-0.6-10.7-2.8-16.1S150.8,35.8,140,34.5c-10.8-1.3-22.3,2.6-25.1,8c-4.1,0.4-7.7,3.7-8.7,8.1 s-2.2,7.3-1.8,8.9s0.8,6,0.4,7.6c-0.3,1.5-1.8,2.3-1.5,2.5s1.8,0.7,3.4,0.1c0.3,3.8,3.3,5.6,4,5.4c-0.3-1.8-1.1-4.2-0.9-6.3 c1,2,2.4,3.3,3.3,3.4c0.3-0.1,0.5-0.1,0.5-0.1s-1.5-6.1-1.2-11.3S114.6,55.7,115.4,56.1z" class="st11"/><g><path d="M152.2,77.6c0,0,2.2-2.8,3.1-2.6c2.5,0.6,2.9,4.1,2.6,5.7c-0.3,1.6-3.5,6-4.3,6.8c-0.8,0.8-3.7,0.2-3.7,0.2 L152.2,77.6z" class="st3"/><g><path d="M148.5,75.1c0.4,2.6,0.6,7,0.5,7.9s0.1,0.9,0.4,0.8c0.3-0.1,2.9-3.4,3.1-8.4L148.5,75.1z" class="st12"/><path d="M152.4,75.4c-0.2,4.9-2.8,8.3-3.1,8.4c-0.3,0.1-0.5,0.2-0.4-0.8c0.1-0.8,0-3.8-0.3-6.3l-0.8-0.3" class="st4"/></g><path d="M152.2,77.6c0,0,2.2-2.8,3.1-2.6c2.5,0.6,2.9,4.1,2.6,5.7c-0.3,1.6-3.5,6-4.3,6.8c-0.8,0.8-3.4,1-3.4,1 l-0.3,0.5" class="st4"/></g><g><path d="M152.5,107.9c0,0,25.2,16.4,25.8,16.8s0.7,1.5,0.5,2.4s-12.2,79-12.2,79s4,12.4,4.3,13.8s-1.2,6.2-1.2,6.2 s-17.2,5.6-48.6,4.1c-14.1-0.7-18.6-5.3-18.6-5.3s-1.8-3.1-1.8-3.6s2.7-10.4,2.7-10.4s1.6-66.1,1.5-68.7c0-2.7,0-18.5,0-19 c0-0.5,0-1.1,0.8-1.7c0.7-0.6,22.9-13.5,22.9-13.5l3.7,5.8l1.8,0.1L152.5,107.9z" class="st2"/><path d="M134.2,124l3.2-2.5c0,0,2,1.9,2.4,2.4c0.5,0.5,1,1.1,2.2,0s12.6-13.1,12.6-13.1l0.4-1.2 c-1.5-1-2.5-1.7-2.5-1.7l-18.5,5.9l-1.8-0.1l-3.7-5.8c0,0-2,1.1-4.8,2.8c0,2.3-0.1,10.3,0,11c0.2,0.9,1.1,1.5,1.8,1.1 c0.7-0.3,2.3-2.3,2.3-2.3l1.7,3.9l3.5,5.3L134.2,124z" class="st13"/><path d="M124.2,183.5c-1.5,25-2.7,40.4-3.2,46.6c0.1,0,0.1,0,0.2,0c0.1,0,0.2,0,0.3,0c0.5-6.2,1.7-21.5,3.2-46.6 c2-33.3,7.8-69.4,7.9-69.8l-0.5-0.1C132,114,126.1,150.2,124.2,183.5z" class="st8"/><g><path d="M127.3,115.4l1.9,7.5l-13.6,92.5c0,0,1.4,7.5,5.4,13.6c0,0,9.1-12.1,9.2-13.6s3.1-92.2,3.1-92.2l4-6.3 l-0.3-3.2l-6.1-0.4L127.3,115.4z" class="st14"/><path d="M130.6,205.3c0,0.5,0,0.9,0,1.3l-12-11.6l0.2-1.2L130.6,205.3z M119,192.2l11.6,11.3c0-1.3,0.1-2.6,0.1-4 l-11.3-10.9L119,192.2z M117.1,205.4l12.2,11.8c0.6-0.9,0.9-1.6,1-1.9c0-0.1,0-0.5,0.1-1.3l-12.7-12.3L117.1,205.4z M120.7,180.5l-0.2,1.2l10.5,10.2c0-0.4,0-0.9,0-1.3L120.7,180.5z M116.8,207.1l-0.2,1.2l11.3,11c0.2-0.3,0.4-0.6,0.6-0.8 L116.8,207.1z M121,178.9l10.2,9.9c0-1.3,0.1-2.7,0.1-4l-9.8-9.5L121,178.9z M122.2,227.4l-4-3.9c0.3,0.8,0.7,1.7,1.2,2.5 l2.3,2.2C121.8,228,122,227.7,122.2,227.4z M115.6,215.4c0,0,0.4,2.2,1.5,5.2l5.9,5.7c0.5-0.7,1.1-1.6,1.8-2.5l-9.1-8.8 L115.6,215.4z M128.9,121.8l0.3,1.1l-0.4,2.9l4.4,4.2c0.1-1.6,0.1-3,0.1-4.1L128.9,121.8z M122.7,167.3l-0.2,1.2l9.1,8.8 c0-0.4,0-0.9,0-1.3L122.7,167.3z M126.8,139.1l5.8,5.7c0-1.4,0.1-2.7,0.1-4.1l-5.4-5.3L126.8,139.1z M128.5,127.5l-0.2,1.2 l4.7,4.5c0-0.5,0-0.9,0-1.4L128.5,127.5z M126.6,140.7l-0.2,1.2l6.1,6c0-0.5,0-0.9,0-1.3L126.6,140.7z M122.9,165.6l8.7,8.5 c0-1.3,0.1-2.7,0.1-4l-8.3-8.1L122.9,165.6z M124.9,152.4l7.3,7.1c0-1.4,0.1-2.7,0.1-4l-6.9-6.7L124.9,152.4z M124.6,154 l-0.2,1.2l7.6,7.4c0-0.5,0-0.9,0-1.4L124.6,154z" class="st15"/><line x1="129.2" x2="133.4" y1="122.9" y2="123.2" class="st4"/><path d="M127.3,115.4l1.9,7.5l-13.6,92.5c0,0,1.4,7.5,5.4,13.6c0,0,9.1-12.1,9.2-13.6s3.1-92.2,3.1-92.2l4-6.3 l-0.3-3.2l-6.1-0.4L127.3,115.4z" class="st4"/></g><path d="M151.9,103l-18.4,10.5c0,0,1.4,0.8,2.2,2.5c0.9,1.7,3.8,6.5,4.1,7c0.3,0.5,0.7,0.9,1.2,0.5 c0.5-0.4,13.3-12.4,13.5-12.7c0.2-0.3,0.5-0.5,0.4-1c-0.1-0.5-2.2-6.1-2.3-6.4C152.7,103.1,151.9,103,151.9,103z" class="st2"/><path d="M132.1,113.4c-0.8,0-1.4,0.7-1.8,1.1c-0.4,0.3-5.3,6.1-5.5,6.4c-0.3,0.3-0.6,0.2-0.6-0.2 c0-0.4-0.1-9.9,0-10.2c0.1-0.3,0.3-0.7,0.6-1c0.3-0.3,3-2.7,3.1-2.9s0.6-0.2,0.6-0.2S131,110.7,132.1,113.4z" class="st2"/></g><g><path d="M159.4,241.6c0,0-8.4,11.6-9,12.8c-0.6,1.2-1.9,5.3-2,6c-0.2,0.8,0.1,2.3,0.3,2.8c0.3,0.6,1.5,3.8,1.5,3.8 s-0.1,4.2-0.1,5c0,0.8,1.2,1.4,1.9,0s1.3-4,1.5-5.5s1.2-5.4,1.2-5.4s0,3.9,0,5c0,1.1,0.3,2.4,0.5,3.7s0.5,3.1,0.5,3.6 s1.3,0.8,1.8-0.4s0.6-3.5,0.3-4.7c-0.3-1.2-0.1-2.3,0-2.9s0.3-3.3,0.3-3.3s1,2.9,1.3,4.3s1.1,2,1.7,2.8c0.6,0.8,1.3,1.6,1.8,2.2 c0.5,0.6,1.1,0.3,1.2-0.5c0.1-0.8-0.9-3.3-1.5-4.3c-0.5-1-1-5.5-1-5.6c0.7-1.6,3.5-6.2,4-9.1c0.5-2.9,1-4.7,1-4.7 s27.6-33.1,30.7-38c3.1-4.9,2.9-7.5,2.9-8.8c0-1.3-15.4-50.8-15.4-50.8c-1.8-6.8-6.3-24.8-6.3-24.8s-6.3,7.5-8.6,21.5 c-2.3,14.1,0.2,21.4,0.2,21.4l12.5,32.6c0,0-4.6,7.9-6.5,11.4S159.4,241.6,159.4,241.6z" class="st2"/><path d="M150.2,267.1c0,0,0-2.3,0-3.2c0-0.9,1.1-5.2,1.2-6.1c0.1-0.9,0-1.3,0-1.3" class="st4"/><path d="M158.4,241.4c-0.1,0.7,0.3,1.4,0.3,1.4c0,0,7.2,4.6,7.9,5.1c0.8,0.5,1.1,0.5,1.5,0.2 c0.4-0.3,6.8-7.7,6.8-7.7s3.4-0.3,4-0.8c0.6-0.5,1.6-3.3,1.6-3.3s15-21,17.2-25c2.2-4,3.9-7.8,3.3-10.5 c-0.6-2.7-15.3-52-15.3-52.7c-1.6-5.8-5.5-21.4-5.9-22.1s-2-1.7-2-1.7s-7.5,6.7-9.2,19.7s-1,21.5,0.5,25.1 c1.5,3.6,11.7,29,11.7,29s-1.2,1.5-1,2s0.9,1.1,0.9,1.1s-12.7,21.5-13.5,23.3c-0.8,1.8-3.5,3.5-3.7,4.5c-0.2,1,0.1,2.5,0.1,2.5 L158.4,241.4z" class="st2"/><path d="M180.5,201.3c0,0,6-1.8,11.1-2.8" class="st4"/><path d="M163.4,231.5c0,0,4.4,4,11.4,8.8" class="st4"/></g><path d="M122.4,95.3c3.5-0.1,6.7-1,8.3-2" class="st16"/><path d="M122.2,84.9l-0.5,3.3c0,0,0.2,0.5,1,1" class="st16"/><polyline points="161.9 147.3 161.9 145.4 143.3 145.4 143.3 147.3" class="st4"/></g><g><g><g><g><path d="M487,245.9c0,0-1.1,76.9-2.2,86.9c-2,18.5-4.3,55-6.3,68.5c-2,13.4-0.5,21.1-0.1,22 c0.3,0.8,7.4,9.7,10.1,12.6c2.7,2.9,9.3,8.8,10.7,9.9c1.4,1.1,1.3,4-0.3,5.4c-1.6,1.4-5.9,3.7-10.7,2.8 c-4.7-1-10.2-5.9-13.3-7.3c-3.1-1.5-6.7-2.5-9.2-3.9c-2.6-1.4-4-2.7-3.9-5.5c0.1-2.8,2.3-11,2.2-12c-0.1-0.9,0-3.5,0-4.7 c0.1-1.3,0.5-2.4,0.5-5.7c0-3.3-3.4-39.7-4.3-45.7c-1.2-8.1-0.7-15.7,1.2-22.5c1.8-6.8,2.1-15.1,2-20.7 c-0.1-5.6-16.4-59-16.4-59c-1.4-11.4-2.2-25.4,0.1-32.4c2.3-7,8.1-11.2,21.7-11.9C478.8,222.1,486.5,231.4,487,245.9z" class="st3"/><path d="M447.2,234.6c2.3-7,8.1-11.2,21.7-11.9c9.9-0.5,17.6,8.8,18.1,23.3c0,0-0.6,41.5-1.3,67.5 c-4.7,0.9-11.1,1.6-19.7,1.8c-1.6,0-3.3,0-4.9,0c-4.6-17.2-14-48.2-14-48.2C445.7,255.5,444.9,241.6,447.2,234.6z" class="st10"/><path d="M488.3,453.9c-4.7-1-10.2-5.9-13.3-7.3c-3.1-1.5-6.7-2.5-9.2-3.9c-2.6-1.4-4-2.7-3.9-5.5 c0.1-2.8,2.1-11,2-12c-0.1-0.9,0-3.4,0.1-4.7c0.1-1.3,0.5-2.4,0.5-5.7c0-3.3-3.6-39.7-4.4-45.7c-1.2-8.1-0.5-15.8,1.3-22.6 c0.1-0.5,0.4-1,0.5-1.5c10.4,3.5,18.6,2.4,21.6,1.8c-1.6,19.1-3.2,43.8-4.8,54.4c-2,13.4-0.3,21,0,21.8 c0.3,0.8,7.1,9.9,9.8,12.8c2.7,2.9,9.3,8.8,10.7,9.9c1.4,1.1,1.3,4-0.3,5.4C497.3,452.5,493.1,454.9,488.3,453.9z" class="st17"/><path d="M461.9,345.1c10.4,3.5,18.6,2.4,21.6,1.8" class="st4"/><path d="M487,245.9c0,0-1.1,76.9-2.2,86.9c-2,18.5-4.3,55-6.3,68.5c-2,13.4-0.5,21.1-0.1,22 c0.3,0.8,7.4,9.7,10.1,12.6c2.7,2.9,9.3,8.8,10.7,9.9c1.4,1.1,1.3,4-0.3,5.4c-1.6,1.4-5.9,3.7-10.7,2.8 c-4.7-1-10.2-5.9-13.3-7.3c-3.1-1.5-6.7-2.5-9.2-3.9c-2.6-1.4-4-2.7-3.9-5.5c0.1-2.8,2.3-11,2.2-12c-0.1-0.9,0-3.5,0-4.7 c0.1-1.3,0.5-2.4,0.5-5.7c0-3.3-3.4-39.7-4.3-45.7c-1.2-8.1-0.7-15.7,1.2-22.5c1.8-6.8,2.1-15.1,2-20.7 c-0.1-5.6-16.4-59-16.4-59c-1.4-11.4-2.2-25.4,0.1-32.4c2.3-7,8.1-11.2,21.7-11.9C478.8,222.1,486.5,231.4,487,245.9z" class="st4"/></g><path d="M463.1,270.6l-3.1,40.2c-3.7-13.6-9.4-32.4-11.7-40.2H463.1z" class="st18"/></g><g><path d="M483.1,430c1.2-0.4,1.9-0.2,2.2,0.3c0.3,0.5,3.1,4.9,3.1,4.9s0.5-0.1,0.8,0.1c0.4,0.2,3.3,3.7,3.5,3.8 c0.2,0.2,0.1,0.6,0.1,0.6s5.4,4.7,5.8,5c0.4,0.3,2.1,1.1,2.3,2c0.2,0.8,0.3,4.4,0,5.7c-0.3,1.3-3.1,2.7-5.4,3.7s-6,1.7-7.9,1.1 c-1.8-0.6-7.8-3.2-10.9-6.1s-4.3-4.3-6.6-5c-2.3-0.7-6-2.7-7.6-4s-2-1.7-2-2.7s0.6-3.6,0.7-3.9s1.1-5.1,1.3-5.7 c0.1-0.6,0.6-0.6,0.6-0.6s2.8,4.3,5.4,6.4c2.6,2.1,6.2,3.5,7.1,3.8c0.9,0.3,1.4-0.1,1.2-0.6c-0.2-0.5-1-2.6-1.3-3.7 s0.5-2,1.3-2.5C477.7,432.3,481.7,430.5,483.1,430z" class="st6"/><path d="M500.5,446c0.5,0.7-0.1,1.7-0.9,2.1c-0.8,0.4-5.1,2.5-7.3,3.1c-2.1,0.6-4.4,0.4-5.8-0.8s-7.6-7.7-8.3-8.6 c-0.7-0.9-1.5-3.5-1.5-3.5" class="st4"/><path d="M488.5,435.3c0,0-8.6,4.1-9.4,4.7s-1,1.7-0.6,2.2" class="st4"/><path d="M492.9,439.8c0,0-9.4,4.4-10,4.8c-0.7,0.3-1.7,0.5-2.1,0" class="st4"/><path d="M501.2,450.7c0,0.8-0.8,1.5-2.2,2.3s-4.4,2.1-6.7,2.6c-2.3,0.5-4.3,0.3-6-0.6c-1.7-0.9-5.5-2.6-7.8-4.6 c-2.3-2.1-5.1-5.1-6.7-5.8c-1.6-0.7-3.2-2.5-4-3.8c-0.8-1.3-6.6-4.8-6.6-4.8" class="st4"/></g></g><g><g><path d="M469.9,253.5c0,0-19.3,75.4-22.2,85.1c-2.9,9.6-16.9,53.9-20.4,67c-3.4,13.1-2.7,20.9-2.5,21.8 c0.2,0.9,6.4,10.5,8.7,13.6c2.3,3.1,8.3,9.8,9.6,11c1.3,1.3,0.9,4.1-0.9,5.3c-1.8,1.2-6.3,3.1-10.9,1.6c-4.6-1.5-9.5-7-12.4-8.7 c-2.9-1.8-6.3-3.2-8.8-4.8c-2.4-1.6-3.7-3.1-3.3-5.8c0.4-2.7,3.5-10.7,3.5-11.7c0-0.9,0.3-3.4,0.5-4.7c0.2-1.2,0.8-2.3,1.1-5.6 c0.3-3.3,2.9-39.2,3.4-45.2c0.5-6,2.6-16.7,5.1-23.2c2.6-6.5,6.2-14.6,6.7-20.2c0.5-5.6-2.3-59.1-2.3-59.1 c-0.2-11.5,0.1-24.5,3.1-31.2c3.1-6.7,13.7-13.4,26.7-9.5C467.7,233.2,472,242,469.9,253.5z" class="st3"/><path d="M426.8,310.7c-0.7-17.5-1.9-40.8-1.9-40.8c-0.1-5.5-0.1-11.3,0.3-16.6c0.6-2.8,1.1-4.9,1.5-6.1 c1.5-4.2,5.2-10.7,8.4-16c5-2.9,11.9-4.4,19.6-2c13,4,17.3,12.8,15.2,24.3c0,0-9.2,36-15.9,61.4 C443.1,314.1,433.6,312.3,426.8,310.7z" class="st10"/><path d="M427.4,405.6c-3.4,13.1-2.7,20.9-2.4,21.8c0.2,0.9,6.1,10.5,8.5,13.6c2.3,3.1,8.3,9.8,9.6,11 c1.3,1.3,0.9,4.1-0.9,5.3c-1.8,1.2-6.3,3.1-10.9,1.6c-4.6-1.5-9.5-7-12.4-8.7c-2.9-1.8-6.3-3.2-8.8-4.8 c-2.4-1.6-3.7-3.1-3.3-5.8c0.4-2.7,3.3-10.7,3.3-11.6c0-0.9,0.3-3.5,0.5-4.7c0.2-1.2,0.8-2.3,1.2-5.7c0.3-3.3,3-39.2,3.5-45.2 c0.5-6,2.5-16.6,5-23.2c0.7-1.8,1.8-3.7,2.6-5.7c7.7,5,18,6.1,21.3,6.4C438.9,366.8,430.1,395.5,427.4,405.6z" class="st17"/><path d="M422.9,343.4c7.7,5,18,6.1,21.3,6.4" class="st4"/><path d="M469.9,253.5c0,0-19.3,75.4-22.2,85.1c-2.9,9.6-16.9,53.9-20.4,67c-3.4,13.1-2.7,20.9-2.5,21.8 c0.2,0.9,6.4,10.5,8.7,13.6c2.3,3.1,8.3,9.8,9.6,11c1.3,1.3,0.9,4.1-0.9,5.3c-1.8,1.2-6.3,3.1-10.9,1.6c-4.6-1.5-9.5-7-12.4-8.7 c-2.9-1.8-6.3-3.2-8.8-4.8c-2.4-1.6-3.7-3.1-3.3-5.8c0.4-2.7,3.5-10.7,3.5-11.7c0-0.9,0.3-3.4,0.5-4.7c0.2-1.2,0.8-2.3,1.1-5.6 c0.3-3.3,2.9-39.2,3.4-45.2c0.5-6,2.6-16.7,5.1-23.2c2.6-6.5,6.2-14.6,6.7-20.2c0.5-5.6-2.3-59.1-2.3-59.1 c-0.2-11.5,0.1-24.5,3.1-31.2c3.1-6.7,13.7-13.4,26.7-9.5C467.7,233.2,472,242,469.9,253.5z" class="st4"/></g><g><path d="M428.1,432.9c1.2-0.4,1.9-0.2,2.2,0.3c0.3,0.5,3.1,4.9,3.1,4.9s0.5-0.1,0.8,0.2c0.4,0.2,3.3,3.7,3.5,3.9 c0.2,0.2,0.1,0.6,0.1,0.6s5.4,4.7,5.7,5c0.4,0.3,2.1,1.2,2.3,2c0.2,0.8,0.3,4.4,0,5.7c-0.3,1.3-3.1,2.6-5.5,3.7 c-2.3,1-6,1.6-7.9,1c-1.8-0.6-7.8-3.3-10.8-6.2c-3-2.9-4.3-4.3-6.5-5.1c-2.2-0.7-6-2.8-7.6-4.1c-1.6-1.3-2-1.7-1.9-2.7 c0-1,0.7-3.6,0.7-3.9c0.1-0.2,1.2-5.1,1.3-5.7c0.1-0.6,0.6-0.6,0.6-0.6s2.8,4.3,5.3,6.5c2.6,2.1,6.2,3.6,7.1,3.9 c0.9,0.3,1.4-0.1,1.2-0.6c-0.2-0.5-1-2.6-1.2-3.7c-0.2-1.1,0.6-2,1.3-2.5C422.7,435.1,426.6,433.3,428.1,432.9z" class="st6"/><path d="M445.3,449c0.5,0.7-0.1,1.7-0.9,2.1c-0.8,0.4-5.1,2.5-7.3,3c-2.1,0.6-4.4,0.3-5.7-0.8 c-1.4-1.1-7.6-7.8-8.3-8.7c-0.7-0.9-1.5-3.5-1.5-3.5" class="st4"/><path d="M433.4,438.1c0,0-8.6,4-9.4,4.6c-0.8,0.6-1,1.7-0.6,2.2" class="st4"/><path d="M437.8,442.7c0,0-9.4,4.3-10.1,4.7c-0.7,0.3-1.7,0.5-2.1,0" class="st4"/><path d="M446,453.6c0,0.8-0.8,1.5-2.2,2.3c-1.4,0.8-4.4,2.1-6.7,2.6c-2.3,0.5-4.3,0.3-6-0.6 c-1.6-0.9-5.4-2.6-7.7-4.7c-2.3-2.1-5.1-5.1-6.7-5.8c-1.6-0.7-3.2-2.5-4-3.8c-0.8-1.3-6.5-4.8-6.5-4.8" class="st4"/></g></g><path d="M435.6,64.9c-5.9,0.2-12,3.4-14.8,14c-2.8,10.7-0.6,27.7,0,34.4c0.6,6.7,0,31.8,0,40.8 c0,9,0.9,23.7,13.3,27.8c0,0,13.9-6.3,18-12.1c-5.4-16.3-12.9-36.5-13.6-52.4c-0.8-15.9,0.8-34.7,0.3-42.4 C438.2,67.4,435.6,64.9,435.6,64.9z" class="st19"/><g><g><path d="M505,262.2c0,0-1.3,4.2-1.7,5.2c-0.4,1-0.9,1.4-1.5,2c-0.6,0.6-1.9,2-2.1,2.3c-0.2,0.3-0.8,0.3-0.8-0.1 c0-0.4,0-1.5,0.5-2.4c0.5-0.9,1.5-1.9,1.6-2.3c0.1-0.3,1.4-5.7,1.4-5.7L505,262.2z" class="st2"/><path d="M500.6,261.2c0,0-2.5,3.3-3.2,4.1c-0.7,0.8-1.2,1-2,1.3c-0.7,0.3-2.3,1.2-2.6,1.3c-0.3,0.2-0.8,0-0.7-0.4 c0.1-0.3,0.5-1.3,1.2-1.9c0.7-0.6,2-1.2,2.2-1.5c0.2-0.3,3.1-4.6,3.1-4.6L500.6,261.2z" class="st2"/><path d="M499,260.4c0,0-2.5,2.2-3.2,2.7c-0.7,0.5-1.1,0.6-1.8,0.7c-0.6,0.1-2,0.5-2.3,0.6c-0.3,0.1-0.6-0.1-0.5-0.4 c0.1-0.3,0.6-1,1.3-1.3c0.7-0.4,1.8-0.6,2-0.8c0.2-0.2,3.2-3.1,3.2-3.1L499,260.4z" class="st2"/><path d="M503.4,261.1c0,0-2.5,5.1-3.1,6c-0.6,0.9-1.1,1.3-1.8,1.7c-0.7,0.5-2.2,1.7-2.4,1.9 c-0.3,0.3-0.8,0.1-0.8-0.2c0-0.4,0.2-1.5,0.9-2.3c0.6-0.8,1.8-1.7,2-2c0.2-0.3,2.3-5.4,2.3-5.4L503.4,261.1z" class="st2"/><g><path d="M504.8,254.6c0,0,0.2,5.7,0.3,6.5c0.1,0.9,0,1.5-0.7,1.3c-0.7-0.2-4.7-1.4-5.8-1.7c-1-0.3-1.7-0.6-1.8-1.6 c-0.2-0.9-0.9-3.6-0.9-5.7c0-2.1,0.2-3.9-0.1-4.8l4.1-0.2C499.9,248.5,504,250.9,504.8,254.6z" class="st3"/><path d="M500.6,260.3c0-0.2-1.1-2.4-1.6-4c-0.6-1.7-0.3-5.5-0.3-5.5l3.6-0.4c1.1,1,2.2,2.5,2.6,4.3 c0,0,0.2,5.7,0.3,6.5c0.1,0.9,0,1.5-0.7,1.3c-0.2-0.1-0.8-0.2-1.5-0.4C499.9,261.5,500.6,260.5,500.6,260.3z" class="st10"/><path d="M504.8,254.6c0,0,0.2,5.7,0.3,6.5c0.1,0.9,0,1.5-0.7,1.3c-0.7-0.2-4.7-1.4-5.8-1.7c-1-0.3-1.7-0.6-1.8-1.6 c-0.2-0.9-0.9-3.6-0.9-5.7c0-2.1,0.2-3.9-0.1-4.8l4.1-0.2C499.9,248.5,504,250.9,504.8,254.6z" class="st4"/></g><g><path d="M473.1,130.3c0,0,7,29.9,8.5,39c1.5,9.1,6.2,28.4,6.7,30.1c0.5,1.8,4.8,9.8,6.3,19.4 c1.5,9.6,3,17,7.4,27.9c2.2,5.4,2.7,6.9,2.9,7.5c0.1,0.6-0.1,4.5-0.2,5.4c-0.1,0.9-0.8,2.9-1,3.7c-0.2,0.7-0.2,1.3-0.6,1.1 c-0.4-0.2-1.1-1.1-1-2.7c0.1-1.6,0.4-2.3,0.3-2.7c-0.2-0.4-2-2.3-3-4.7c-1-2.4-0.5-4.3-0.5-4.7c-0.1-0.5-2.2,0.5-2.9-1 c-0.7-1.5-8.8-16.6-11.7-23.7c-2.9-7.2-5-12.7-5.3-16.8c-0.3-4.1-1-6.4-1.6-7.8c-0.6-1.4-9.3-24.4-12.8-34.4 c-3.5-10-6.7-17.6-7.2-23.1C456.6,137.2,467.1,124.6,473.1,130.3z" class="st3"/><path d="M498.7,249.6c0.1,0.3-0.5,2.2,0.5,4.7c1,2.4,2.8,4.3,3,4.7c0.2,0.4-0.2,1.1-0.3,2.7 c-0.1,1.6,0.5,2.5,1,2.7c0.4,0.2,0.5-0.4,0.6-1.1c0.2-0.7,1-2.7,1-3.7c0.1-0.9,0.4-4.8,0.2-5.4c-0.1-0.6-0.7-2.1-2.9-7.5 c-4.4-10.9-5.9-18.2-7.4-27.9c-1.5-9.6-5.8-17.6-6.3-19.4c-0.5-1.8-5.2-21-6.7-30.1c-1.5-9.1-8.5-39-8.5-39 c-6-5.7-16.5,6.9-16,12.5c0.5,5.5,3.7,13.1,7.2,23.1c3.5,10,12.2,32.9,12.8,34.4c0.6,1.4,1.3,3.7,1.6,7.8 c0.3,4.1,2.4,9.6,5.3,16.8c2.9,7.2,11,22.3,11.7,23.7c0,0,0.2,0.4,0.2,1.4" class="st4"/></g></g><g><path d="M462.1,140c5.2-7.5,12.3-10.3,13.4-9c1.3,1.4,2.9,4.7,4.2,10.9c1.3,6.2,3,15.6,3.6,19.6 c0.3,1.9,1.6,5.3,2.5,10.7l-20.6,5.9c-2.1-6-3.9-13.3-4.3-14.5c-0.8-2.1-7.2-6.3-7.4-6.9C453.4,156,456.9,147.5,462.1,140z" class="st2"/><path d="M486.2,168.6l-22.6,6.9l2,6.6c0,0,12.1-3.7,22.4-7.5L486.2,168.6z" class="st2"/></g></g><path d="M459.3,103.1c0,0,1.2,12.1,1.8,18.2c-0.4,1.3-1.3,3.4-2.6,3.2c-1.8-0.3-10.7-3.2-17.8-20.2l0-1L459.3,103.1z" class="st18"/><g><g><g><path d="M442.4,103.1c0,0,0.9,14.9,0.4,19.3c-0.5,4.4-1.7,6.9-6.6,9.2c-4.9,2.3-9.6,4.3-11.8,7.4 c-2.1,3,3,21.5,6.3,30.1c3.3,8.7,10.4,30,11.2,41.8c-7.3,10.8-15.4,24-16.1,27.8c0,0,21.8,4,42,14.5 c10.5-5.4,19.6-7.4,19.6-7.4s-4.2-27.8-4.2-32.6s1.2-34.3,1.2-34.3s4.6-13.9,3.8-17.7s-8.8-20.4-9.1-20.9 c-1.1-3.3-2.3-7.6-2.6-8.3s-0.8-1.4-2.3-1.8c-1.4-0.4-7.9-2.8-9.1-3.2c-1.2-0.5-2.1-1.3-2.2-2.3c-0.1-0.9-1.9-21.6-1.9-21.6 H442.4z" class="st3"/><path d="M461.2,103.1c0,0,1,12.1,1.6,18.2c-0.4,1.3-1.3,3.4-2.6,3.2c-1.8-0.3-10.6-3.4-17.5-20.4v-1H461.2z" class="st10"/><path d="M442.4,103.1c0,0,0.9,14.9,0.4,19.3c-0.5,4.4-1.7,6.9-6.6,9.2c-4.9,2.3-9.6,4.3-11.8,7.4 c-2.1,3,3,21.5,6.3,30.1c3.3,8.7,10.4,30,11.2,41.8c-7.3,10.8-15.4,24-16.1,27.8c0,0,21.8,4,42,14.5 c10.5-5.4,19.6-7.4,19.6-7.4s-4.2-27.8-4.2-32.6s1.2-34.3,1.2-34.3s4.6-13.9,3.8-17.7s-8.8-20.4-9.1-20.9 c-1.1-3.3-2.3-7.6-2.6-8.3s-0.8-1.4-2.3-1.8c-1.4-0.4-7.9-2.8-9.1-3.2c-1.2-0.5-2.1-1.3-2.2-2.3c-0.1-0.9-1.9-21.6-1.9-21.6 H442.4z" class="st4"/></g><g><path d="M438,215.6c0,0-9.1,12.4-13.1,26c-7.9,27-10.9,61.6-10.9,61.6c5.1,1.4,12.9,1.2,12.9,1.2v2.8 c0,0,5.8,1.9,15.3,0.1c7.5,3.3,14.8,2.8,14.8,2.8l0.3-2c6.8,2.8,15.7,2.4,15.7,2.4l0.4-2.4c7.2,2.1,14.9,1.7,14.9,1.7l-0.5-3.2 c7.4,0,12.1-3,12.1-3l-14.7-87.2l-0.8-16.4h-44.8L438,215.6z" class="st20"/></g><path d="M485.2,215.7c0,0-21.1,4.2-47.2-0.1" class="st4"/><line x1="487.9" x2="479.2" y1="306.5" y2="216.6" class="st4"/><line x1="473.4" x2="470.3" y1="308" y2="217.3" class="st4"/><line x1="457.4" x2="461.6" y1="308" y2="217.5" class="st4"/><line x1="442.2" x2="452.6" y1="307.3" y2="217.3" class="st4"/><path d="M426.9,305c0,0,6.4-55,16.1-88.7" class="st4"/></g><g><g><path d="M459.5,128.7l1.3-0.2l5.7-1.6c0,0,8.1,3.1,9,3.6c0.9,0.4,1.5,1.1,1.8,2.3c0.3,1.2,4.8,12.5,5.6,14.1 s5.9,12.4,5.7,15.9c-0.2,3.5-2.4,18.7-2.7,23.1s0.9,11.8,0.8,12.6c-0.1,0.8-2,2.3-2.8,2.6s-11.8,1.4-25,1.3 c-13.2-0.1-19.4-1.9-19.4-1.9s-5.6-4.7-5.8-5.2c-0.2-0.5,2.5-6.1,1.9-8.1c-0.6-2-11.9-27.3-12.8-35.3c-0.9-8,1.6-14.2,3-15.3 s11.6-5.4,14.9-8.8L459.5,128.7z" class="st3"/><path d="M434.8,169l-4.3,5.1c-0.5-1.3-2-5.1-2.5-6.3L434.8,169z" class="st13"/><path d="M440.9,127.7l18.6,1l1.3-0.2l5.7-1.6c0,0,0.8,0.3,1.9,0.7l0.3,6.4c0,0-6.5,2.3-9.3,2.8 c-2.8,0.6-7.4,2.5-7.7,2.3c-0.3-0.3-2.6-2.4-2.6-2.4l-10.1-7.6C439.8,128.7,440.4,128.2,440.9,127.7z" class="st13"/><path d="M449.2,135.2c0.4-0.3,4.2-1.4,7.8-2.1c-2.6-1.2-4.6-2.8-4.6-2.8l1.5-1.6c1.8,1.5,4.7,3.3,5.8,4 c0.2,0,0.3-0.1,0.5-0.1c0.4-0.4,0.9-0.6,1.5-0.5c0.3,0,0.6,0.1,0.8,0.3c1.1-1.5,1.5-3.8,1.5-3.8l1.8,1.6 c-0.5,1.2-1.1,2.1-1.7,2.8c2.5,0.8,6.8,2.2,7.3,2.6c0.7,0.6,0,1.5-0.2,2c-0.1,0.3-1,1.5-1.7,2.5c1.9,2.6,3.2,4.8,3.2,5 c0,0.5-0.8,2.6-3.5,4.4c-2.7,1.9-4.9,2.4-5.5,1.1c-0.5-1.1-1.6-11.6-1.9-14.6c-0.1,0-0.1,0-0.2,0c-0.4,2.9-0.8,13.9-0.9,14.6 c-0.1,0.8-1.4,2-2.8,1.3c-1.4-0.7-6.6-4-7.4-4.6c-0.8-0.6-0.9-1-0.6-1.7c0.1-0.3,0.6-2.7,1.8-4.2c-0.8-1-1.9-2.4-2.4-3.4 C448.7,136.3,448.6,135.7,449.2,135.2z" class="st13"/><path d="M459.5,128.7l1.3-0.2l5.7-1.6c0,0,8.1,3.1,9,3.6c0.9,0.4,1.5,1.1,1.8,2.3c0.3,1.2,4.8,12.5,5.6,14.1 s5.9,12.4,5.7,15.9c-0.2,3.5-2.4,18.7-2.7,23.1s0.9,11.8,0.8,12.6c-0.1,0.8-2,2.3-2.8,2.6s-11.8,1.4-25,1.3 c-13.2-0.1-19.4-1.9-19.4-1.9s-5.6-4.7-5.8-5.2c-0.2-0.5,2.5-6.1,1.9-8.1c-0.6-2-11.9-27.3-12.8-35.3c-0.9-8,1.6-14.2,3-15.3 s11.6-5.4,14.9-8.8L459.5,128.7z" class="st4"/></g><path d="M462,133l0.5-0.2c0.1,0.2,7.8,18,8.7,27.5c0.7,7-0.5,21-1.2,29.4c-0.3,3.1-0.4,5.4-0.4,6 c0.1,2.2,0,6.3,0,6.5c-0.1,0-0.2,0-0.3,0l-0.2,0c0,0,0.1-4.3,0-6.5c0-0.6,0.2-2.9,0.4-6c0.7-8.4,1.9-22.4,1.2-29.3 C469.8,150.9,462.1,133.2,462,133z" class="st8"/></g></g><path d="M425.2,136.6c0,0-6,6.4-8.5,13.9c-2.6,7.6-3.8,12-5.1,14.7c-1.4,2.7-17.4,29.9-18.1,31.3 c-0.7,1.3-0.8,1.5-0.8,2s4,3.6,8.4,3.2c4.4-0.4,7.5-4.4,7.5-4.4s20-28.7,21-30c1-1.3,4.6-2.5,5.8-4.3c1.2-1.7,1.1-10.8-1.3-17 C431.6,139.8,426.3,135.4,425.2,136.6z" class="st2"/><g><path d="M435.2,148c-3-8.7-9.1-13.2-10.5-12.2c-1.6,1-4.1,3.8-6.9,9.4c-2.9,5.6-7.1,14.2-8.8,17.9 c-0.8,1.7-2.9,4.6-5.3,9.6l18.3,11.2c3.6-5.2,7.3-11.8,8-12.8c1.3-1.8,8.6-4.1,9-4.7C439.3,165.8,438.2,156.7,435.2,148z" class="st2"/><path d="M404.3,169.2l19.9,12.7l-3.6,5.8c0,0-10.7-6.8-19.6-13.3L404.3,169.2z" class="st2"/></g><g><g><path d="M438.7,127.3c0,0-0.7-0.1-1.1,0.6c-0.4,0.7-1.4,1.5-2.5,2s-12.1,6.2-12.9,6.7c-0.9,0.4-1.7,2.3-1.5,3.7 c0,0,1.9-1.3,3.2,0.5c2.8,3.9,7,13.4,7.3,23.2c0.2,5.2-0.4,11.2-1.1,11.4l-1.1-2.8l-1.1,1.9c0,0,4.5,26.4,4.6,34.8 c0,1.8-1,7.9-1.8,11.3c-0.3,1,0,2.9,0,2.9s-4,9.5-4.4,10.1c-0.4,0.6,0.5,1.8,0.5,1.8s10.2,5.8,38.5,5.1c17.5-0.5,23-4.1,23-4.1 s0.8-0.3,0.9-1.1c0.1-0.8-1.3-9.4-1.3-9.4s1.6-2.6,1.7-3.8c0-1.2-1.2-13.1-1.5-15.3c-0.3-2.2-0.4-17.4,0.1-22.4 c0.4-4.9,1.2-21.1,0.7-23.5c-0.5-2.4-12.8-29.2-13.1-29.7c-0.3-0.6-0.7-0.7-1.3-1c-0.6-0.3-9-3.3-9-3.3s3,18.7,2.2,31 C454.8,142.5,450.9,135.6,438.7,127.3z" class="st21"/><path d="M422.2,136.6c0,0,4.1,0.9,7.5,9.6c3.4,8.8,3.9,15.7,3.7,22c-0.1,4.8-1.8,9.8-2.7,10.2 c-0.9,0.5-2.4-1.3-2.5-2.2" class="st22"/><path d="M489,233.4c0-0.2,0-0.3-0.1-0.5c-27.9,9.3-53.9,1.5-61.6-1.4c-0.1,0.2-0.1,0.3-0.2,0.5 c5.2,1.9,18.4,6,35,5.8C470.4,237.7,479.6,236.5,489,233.4z" class="st23"/><path d="M428.7,228.2c-0.3,0.6-0.5,1.2-0.8,1.8c5.9,2,18.6,5.7,34.2,5.5c8.3-0.1,17.3-1.3,26.6-4.3 c-0.1-0.7-0.2-1.4-0.3-2C462.1,237.9,437.5,231.3,428.7,228.2z" class="st23"/><path d="M438.7,127.3c0,0-0.7-0.1-1.1,0.6c-0.4,0.7-1.4,1.5-2.5,2s-12.1,6.2-12.9,6.7c-0.9,0.4-1.7,2.3-1.5,3.7 c0,0,1.9-1.3,3.2,0.5c2.8,3.9,7,13.4,7.3,23.2c0.2,5.2-0.4,11.2-1.1,11.4l-1.1-2.8l-1.1,1.9c0,0,4.5,26.4,4.6,34.8 c0,1.8-1,7.9-1.8,11.3c-0.3,1,0,2.9,0,2.9s-4,9.5-4.4,10.1c-0.4,0.6,0.5,1.8,0.5,1.8s10.2,5.8,38.5,5.1c17.5-0.5,23-4.1,23-4.1 s0.8-0.3,0.9-1.1c0.1-0.8-1.3-9.4-1.3-9.4s1.6-2.6,1.7-3.8c0-1.2-1.2-13.1-1.5-15.3c-0.3-2.2-0.4-17.4,0.1-22.4 c0.4-4.9,1.2-21.1,0.7-23.5c-0.5-2.4-12.8-29.2-13.1-29.7c-0.3-0.6-0.7-0.7-1.3-1c-0.6-0.3-9-3.3-9-3.3s3,18.7,2.2,31 C454.8,142.5,450.9,135.6,438.7,127.3z" class="st4"/></g><g><path d="M430.7,223.5c14.4,7,42.8,7,57.2,2.3" class="st4"/></g></g><g><path d="M461.9,211.6c-0.2,1.6-1.7,2.8-3.3,2.7l-37.1-4c-1.6-0.2-2.8-1.7-2.7-3.3l5.9-54.5c0.2-1.6,1.7-2.8,3.3-2.7 l37.1,4c1.6,0.2,2.8,1.7,2.7,3.3L461.9,211.6z" class="st2"/><path d="M466.3,161.8l-2.4-0.6l0.5-4.4c0.2-1.6-1-3.1-2.7-3.3l-37.1-4c-1.6-0.2-3.1,1-3.3,2.7l-5.9,54.5 c-0.2,1.6,1,3.1,2.7,3.3l37.1,4c1.6,0.2,3.1-1,3.3-2.7l3.3-30.3l2.5-0.1c0.8,0,1.5-0.7,1.6-1.5l1.7-15.9 C467.7,162.8,467.1,162,466.3,161.8z" class="st24"/><path d="M453.1,171.1c-0.1,0.9-0.9,1.5-1.8,1.4l-20.7-2.2c-0.9-0.1-1.5-0.9-1.4-1.8l0.9-8.4c0.1-0.9,0.9-1.5,1.8-1.4 l20.7,2.2c0.9,0.1,1.5,0.9,1.4,1.8L453.1,171.1z" class="st2"/></g><g><path d="M445.4,195.3c0,0,8.3-6.4,8.8-7c0.5-0.6,2.9-3.5,3.4-3.8c0.4-0.3,1.2-0.3,1.9-0.3c0.6-0.1,2.8-0.1,3.2,0 c0.4,0,1.6,0.8,2.5,1.1c0.9,0.3,2.1,0.8,2.3,0.9c0.2,0.1,0.3,0.9-1,1.2c-1.3,0.3-2.9-0.5-3.4-0.6c-0.5,0-3.1,0.7-3.5,0.9 c-0.3,0.2-1.4,1.4-1.4,1.4s4.3,0.8,5,1.1c0.7,0.2,2.9,1.4,3.9,1.6c1,0.3,2.5,0.6,2.6,0.9c0,0.3-1.2,1.7-2.9,1.5 c-1.7-0.3-4-1.3-4.6-1.3c-0.6,0-2.7,0-2.7,0s2.9,1.4,3.3,1.6c0.4,0.2,3.2,2.2,4,2.5c0.8,0.3,1.3,0.7,1.1,1.1 c-0.3,0.4-1.2,1.3-3.3,0.6c-2.1-0.7-2.9-1.7-3.7-1.9c-0.9-0.2-3.1-0.3-3.1-0.3s1.7,1.6,2.3,2.1c0.5,0.5,1.2,1.5,1.6,2.1 c0.4,0.6,1.2,1.8,1.6,2.2c0.4,0.4,0,0.9-0.6,0.9c-0.7,0-1.7-0.4-2.6-1.3c-0.9-0.9-1-1.2-1.3-1.3c-0.3-0.2-1.3-0.6-1.3-0.6 s-3.9,2.7-5.9,3.1c-2,0.4-4.1-0.3-5.2-0.2c-1.1,0.1-31.4,3-37.7,2.4c-6.2-0.6-8.4-1.3-11.3-3.3c-2.9-2-4.6-3.5-4.5-4.3 c0.1-0.8,3.4-5.5,8.1-6.5c4.7-1,6.7-1,10.8-0.2C415.7,192.5,422.5,196.6,445.4,195.3z" class="st3"/><path d="M405.9,191.2c1.9-0.1,3.2,0.1,5.6,0.5c4.1,0.8,11,4.9,33.9,3.7c0,0,8.3-6.4,8.8-7c0.5-0.6,2.9-3.5,3.4-3.8 c0.4-0.3,1.2-0.3,1.9-0.3c0.6-0.1,2.8-0.1,3.2,0c0.4,0,1.6,0.8,2.5,1.1c0.9,0.3,2.1,0.8,2.3,0.9c0.2,0.1,0.3,0.9-1,1.2 c-1.3,0.3-2.9-0.5-3.4-0.6c-0.5,0-3.1,0.7-3.5,0.9c-0.3,0.2-1.4,1.4-1.4,1.4s4.3,0.8,5,1.1c0.7,0.2,2.9,1.4,3.9,1.6 c1,0.3,2.5,0.6,2.6,0.9c0,0.3-1.2,1.7-2.9,1.5c-1.7-0.3-4-1.3-4.6-1.3c-0.6,0-2.7,0-2.7,0s2.9,1.4,3.3,1.6c0.4,0.2,3.2,2.2,4,2.5 c0.8,0.3,1.3,0.7,1.1,1.1c-0.3,0.4-1.2,1.3-3.3,0.6c-2.1-0.7-2.9-1.7-3.7-1.9c-0.9-0.2-3.1-0.3-3.1-0.3s1.7,1.6,2.3,2.1 c0.5,0.5,1.2,1.5,1.6,2.1c0.4,0.6,1.2,1.8,1.6,2.2c0.4,0.4,0,0.9-0.6,0.9c-0.7,0-1.7-0.4-2.6-1.3c-0.9-0.9-1-1.2-1.3-1.3 c-0.3-0.2-1.3-0.6-1.3-0.6s-3.9,2.7-5.9,3.1c-2,0.4-4.1-0.3-5.2-0.2c-1.1,0.1-31.4,3-37.7,2.4c-6.2-0.6-8.4-1.3-11.3-3.3 c-2.9-2-4.6-3.5-4.5-4.3c0,0,1.3-2.7,1.8-3.5" class="st4"/></g><path d="M435.4,62.6c-4.8-0.3-10,4.4-6.4,13.8l5.8-0.3L435.4,62.6z" class="st25"/><g><path d="M483.8,80.7c1,16.6,0.5,28.1-4.7,39.4c0,0-0.7-25.5-4.4-38.4L483.8,80.7z" class="st19"/><g><g><path d="M478.7,94.9c-0.7,4.8-0.5,10.7-5.1,17.1c-4.6,6.4-10.2,8.3-10.6,8.3c-0.5,0-16.3-4.4-22.1-14 c-5-2.5-12.4-14.3-10.1-29.7c2.3-15.4,16.5-21.3,31.2-17.7c13.9,3.3,18.7,15.2,18.5,23.4C480.3,90.5,479.1,90.9,478.7,94.9z" class="st2"/><g><path d="M452.7,94.4c0,1.2,1,2.2,2.2,2.3c1.2,0,2.2-1,2.3-2.2c0-1.2-1-2.2-2.2-2.3 C453.7,92.2,452.7,93.2,452.7,94.4z" class="st8"/><path d="M459.6,94.1c-1.1-1-2.2-1.6-3.8-1.6c-1.9,0-3.4,1.1-3.4,1.1" class="st4"/><path d="M461.7,88.7c0.5,0.1,0.6,0.3,0.6,0.5c0,0.2-0.3,0.4-0.6,0.6c-0.7,0.3-1.7,0-2.5-0.2 c-0.8-0.2-3.8-0.4-5.3-0.4c-0.9,0-3,0.7-2.9,0.5c0-0.3,1.9-1.7,3.2-1.8C455.7,87.7,458.8,87.8,461.7,88.7z" class="st8"/></g><g><path d="M475.6,94.8c0,1.2-0.8,2.1-1.7,2.1c-1,0-1.7-0.9-1.7-2.1c0-1.2,0.8-2.1,1.7-2.1 C474.8,92.7,475.6,93.6,475.6,94.8z" class="st8"/><path d="M471.6,94.5c0.8-0.9,1.7-1.5,2.9-1.4c1.4,0,2.6,1,2.6,1" class="st4"/><path d="M470.5,89.5c-0.3,0.1-0.4,0.3-0.4,0.5c0,0.2,0,0.2,0.5,0.5c0.5,0.3,0.9,0.1,1.5-0.1 c0.6-0.2,2.7-0.6,3.8-0.6c0.6,0,2.1,0.7,2.1,0.4c0-0.2-1.2-1.1-2.2-1.2C474.7,88.9,472.6,88.7,470.5,89.5z" class="st8"/></g><path d="M468.1,110.4c-3.5-0.1-6.7-0.9-8.3-2" class="st16"/><path d="M469,100l1,3.5c0,0-0.2,0.5-1,1" class="st16"/><g><g><path d="M475.4,99.5l0.8,1.2c0,0.1,0,0.2,0,0.2c-0.1,0-0.1,0-0.2,0l-1.1-0.8c-0.2-0.1-0.2-0.4-0.1-0.5 C474.9,99.4,475.2,99.3,475.4,99.5C475.4,99.5,475.4,99.5,475.4,99.5z" class="st26"/></g><g><path d="M473.8,99.5l0.8,1.2c0,0.1,0,0.2,0,0.2c-0.1,0-0.1,0-0.2,0l-1.1-0.8c-0.2-0.1-0.2-0.4-0.1-0.5 C473.3,99.3,473.5,99.3,473.8,99.5C473.7,99.4,473.8,99.5,473.8,99.5z" class="st26"/></g><g><path d="M472.2,99.5l0.8,1.2c0,0.1,0,0.2,0,0.2c-0.1,0-0.1,0-0.2,0l-1.1-0.8c-0.2-0.1-0.2-0.4-0.1-0.5 C471.7,99.3,471.9,99.3,472.2,99.5C472.1,99.4,472.2,99.4,472.2,99.5z" class="st26"/></g><g><path d="M456.8,99.2l0.8,1.2c0,0.1,0,0.2,0,0.2c-0.1,0-0.1,0-0.2,0l-1.1-0.8c-0.2-0.1-0.2-0.4-0.1-0.5 C456.3,99.1,456.5,99,456.8,99.2C456.7,99.2,456.8,99.2,456.8,99.2z" class="st26"/></g><g><path d="M455.2,99.2l0.8,1.2c0,0.1,0,0.2,0,0.2c-0.1,0-0.1,0-0.2,0l-1.1-0.8c-0.2-0.1-0.2-0.4-0.1-0.5 C454.7,99,454.9,99,455.2,99.2C455.1,99.2,455.1,99.2,455.2,99.2z" class="st26"/></g><g><path d="M453.5,99.2l0.8,1.2c0,0.1,0,0.2,0,0.2c-0.1,0-0.1,0-0.2,0l-1.1-0.8c-0.2-0.1-0.2-0.4-0.1-0.5 C453,99,453.3,99,453.5,99.2C453.5,99.1,453.5,99.2,453.5,99.2z" class="st26"/></g></g></g></g><path d="M483.7,80.5c-0.8-8.3-5.6-16.9-12.9-19.8c0,0-5.6-5-18.2-4.9c-10.2,0.1-17.5,4.4-21,12.5 c-3.5,8.1-3.1,16.8-3.6,22.6c-0.5,5.8,0.7,9.3,4.5,14.1c3.8,4.8,8.3,5.2,8.3,5.2l-0.1-4l-1.7-9.7c9.3-2.1,16.3-13.2,19.1-21.1 c0.5,7.1,0.1,15.7,0.1,15.7s0.9-0.9,1.3-1.1c0.5-0.3,2.1-6,2.9-13.4c1.3,6,0.2,14.4,0.2,14.4s1.1-0.5,1.5-0.9 c0.4-0.4,1.5-4.7,2.2-8.5c0.2,2.3-0.5,10.2-0.5,10.2s3-1.5,3.2-2.1c0.3-0.6,1.6-10.3,0.8-16.9c0,0,4.2,11,3.2,17.9 c2.2-0.8,4-2.8,4-2.8s1.2-7.1,1.2-11c0,0,2.1,15.4,2,21.9C480.2,98.9,484.5,88.8,483.7,80.5z" class="st19"/><g><path d="M440.4,99.2c0,0-0.2-2.4-0.6-3.6c-0.5-1.2-2.6-3.4-3.5-3.1c-0.9,0.4-3.6,2.6-2.8,6.3c0.8,3.6,3.7,6.4,5,7.1 c1.3,0.7,2.5,0.6,2.5,0.6L440.4,99.2z" class="st3"/><path d="M439.8,95.6c-0.5-1.2-2.6-3.4-3.5-3.1c-0.9,0.4-3.6,2.6-2.8,6.3c0.8,3.6,3.7,6.4,5,7.1 c1.3,0.7,2.5,0.6,2.5,0.6" class="st4"/></g><g><path d="M439.6,81.2c-0.7,16.7,0.1,28.1,5.6,39.3c0,0,0.1-25.5,3.5-38.5L439.6,81.2z" class="st27"/><path d="M439.5,92.8c0.2,10.8,1.7,19.3,5.8,27.7c0,0,0.1-25.5,3.5-38.5" class="st4"/></g></g><g><g><path d="M461.1,131.2c0,0,7.1,1.2,7.8,1.7c0.8,0.5,0.9,1.8,0.9,2.3c0,1.5-1.1,4.6-1.6,4.6 c-0.4,0.1-7.3-6.3-7.3-6.3s-8,8.3-8.4,9c-0.4,0.7-1.1,1.3-1.5,0.9c-0.4-0.4-3.1-2.7-4-4.3c-0.9-1.6-1.1-2.2-0.5-2.7 C447,135.8,457.9,131.4,461.1,131.2z" class="st20"/><path d="M462.3,127.2c0,0-0.2,3-1.5,4.6l-1.9,0.2c0,0-4.2-1.9-6.7-3.6l-1.4,1.8c0,0,4.9,3.2,9,3.1l1.8-0.2 c0,0,1.8-1.5,2.6-4.4L462.3,127.2z" class="st20"/><path d="M461.6,131.8c4.5,2.3,11,10.5,11,10.9c0,0.5-0.5,2.6-3.1,4.8c-2.5,2.1-4.6,2.9-5.4,1.6 c-0.8-1.3-3.6-15.1-3.6-15.1s-0.4,13.5-0.5,14.4c-0.1,0.8-0.6,2-2,1.4c-1.4-0.6-7-3.2-7.8-3.8c-0.8-0.5-1-0.9-0.8-1.7 c0.2-0.8,5-9.2,9.7-12.2L461.6,131.8z" class="st20"/><path d="M458.3,133c0,1.1,0.9,2,2,2c1.1,0,2-0.9,2-2c0-1.1-0.9-2-2-2C459.2,131,458.3,131.9,458.3,133z" class="st20"/></g><path d="M441.6,120.7l16.7,8.1c0,0-2.5,0.7-3.3,2.5c-0.8,1.7-3.1,6.5-3.3,7c-0.3,0.5-0.7,0.9-1.1,0.5 c-0.5-0.4-11.2-10-11.4-10.3c-0.2-0.3-0.5-0.5-0.4-1c0.1-0.5,2.1-6.1,2.2-6.4C440.9,120.8,441.6,120.7,441.6,120.7z" class="st2"/><path d="M459.6,128.6c0.8,0,1.6,0,1.9,0.4c0.4,0.3,5.4,5.8,5.6,6.1c0.3,0.3,0.6,0.2,0.6-0.2c0-0.4-1.6-7.4-1.7-7.7 c-0.1-0.3-0.3-0.7-0.6-1c-0.3-0.3-3.2-3.3-3.3-3.5c-0.1-0.2-0.6-0.2-0.6-0.2S460.8,125.9,459.6,128.6z" class="st2"/></g></g><g><g><g><path d="M658.9,276c0,0-1.8,4.8-2.3,6.1s-1.3,2.2-2.1,3c-0.8,0.8-2.2,2.3-2.6,2.5c-0.3,0.3-1.2-0.1-0.8-1.8 c0.4-1.7,1.9-3.3,2.4-4.1c0.5-0.8,1.6-5.7,1.6-5.7H658.9z" class="st2"/><path d="M656.4,276.3c0,0-2.5,4.4-3.3,5.7c-0.8,1.3-1.7,2-2.6,2.6c-0.9,0.7-2.6,1.9-2.9,2.1 c-0.4,0.2-1.2-0.3-0.5-1.9c0.7-1.6,2.4-3,3.1-3.7c0.7-0.7,2.5-5.4,2.5-5.4L656.4,276.3z" class="st2"/><path d="M654.2,274.4c0,0-2.7,4-3.6,5.2c-0.8,1.1-1.7,1.8-2.6,2.3c-0.9,0.6-2.6,1.6-3,1.8c-0.4,0.2-1.1-0.4-0.3-1.9 c0.8-1.5,2.5-2.7,3.2-3.3c0.7-0.6,2.8-4.9,2.8-4.9L654.2,274.4z" class="st2"/><path d="M652,273.9c0,0-3.1,2.9-4,3.7c-0.9,0.8-1.8,1.2-2.7,1.5c-0.9,0.3-2.5,0.9-2.9,0.9c-0.4,0.1-0.8-0.5,0.1-1.7 c0.9-1.1,2.7-1.8,3.4-2.2c0.7-0.4,3.3-3.7,3.3-3.7L652,273.9z" class="st2"/><path d="M645.1,123c0,0,6,50.1,7.3,64.1s1.9,27.8,2.9,39.6s2.8,29.6,2.8,29.6s1.9,11.3,1.9,12.2s-0.8,6.3-1.1,7.9 c-0.4,1.7-5.7-0.1-8-0.8s-2.5-1.6-2.6-2.5c0-0.9-0.6-6.9-0.3-8.9c0.3-2,1.5-7.4,1.5-7.4s-7.7-35.6-8.8-43.9s-0.8-16.8-1.1-18.8 s-10.2-38.9-11.2-50.8s-0.6-17.5,4.5-20.5C638,120.1,644.4,120.5,645.1,123z" class="st2"/><g><path d="M650.7,261c0,0,0,4.7,0.9,7.5s1.7,3.2,1.8,4.6c0.1,1.4-0.5,3.6-0.2,4.8c0.3,1.2,2,2.5,2.1,2.2 s0.9-3.3,1.2-4.3c0.3-1,0.7-2.4,0.8-3.8c0.1-1.3,0.8-5.1,1.1-7.2c0.3-2.1,0.1-3.8-0.9-5.6C656,256.5,651,256.4,650.7,261z" class="st3"/><path d="M650.9,264.6c0.1,1.3,0.3,2.8,0.7,3.9c0.9,2.8,1.7,3.2,1.8,4.6c0.1,1.4-0.5,3.6-0.2,4.8 c0.3,1.2,2,2.5,2.1,2.2s0.9-3.3,1.2-4.3c0.3-1,0.7-2.4,0.8-3.8c0.1-1.3,0.9-5.1,1.1-7.2c0.1-0.8,0.5-2.7,0.3-3.8" class="st4"/></g></g><path d="M654.5,181l-9.4-58c0,0-4.9-3.7-12.2,0s-8.1,15.5-7.3,26.5c0.8,11,5.7,35.8,5.7,35.8L654.5,181z" class="st2"/><polygon points="629.3 183.5 655.1 178.1 656.9 187.7 631.2 192.3" class="st2"/></g><g><path d="M641.3,422.4l4.6,10.8c0,0-8.6,3.6-14.3,1.6s-9.6-7.2-9.6-7.2l1.7-7.5L641.3,422.4z" class="st5"/><path d="M641.3,425.7c1.3-0.4,2-0.2,2.3,0.3c0.3,0.5,4.4,8.1,4.4,8.1s0.5-0.1,0.9,0.2c0.4,0.2,3.5,3.8,3.7,4 s0.1,0.6,0.1,0.6s5.7,4.9,6.1,5.2c0.4,0.3,2.2,1.2,2.4,2.1c0.2,0.9,0.3,4.6,0,6c-0.3,1.4-3.3,2.8-5.7,3.9 c-2.4,1.1-6.3,1.8-8.2,1.1c-1.9-0.7-8.2-3.3-11.4-6.4c-3.2-3-4.5-4.5-6.9-5.2c-2.4-0.7-6.3-2.9-8-4.2c-1.6-1.3-2.1-1.8-2.1-2.9 c0-1,0.7-3.8,0.7-4.1c0.1-0.3,2.4-10.9,2.5-11.5c0.1-0.6,0.6-0.7,0.6-0.7s4.3,3.5,6.7,6.1c2.5,2.6,3,4.4,3.9,4.7 c0.9,0.3,0.9,0.1,0.9-0.4c-0.1-0.9-0.2-2.4-0.4-3.6c-0.3-1.2,0.6-2.1,1.3-2.6C635.9,426.1,639.7,426.2,641.3,425.7z" class="st6"/><path d="M660.8,445.7c0.3,0.4-0.1,1.1-1,1.6c-0.9,0.5-6.2,3-8,3.7c-1.8,0.7-4.5-0.3-6.3-1.7 c-1.8-1.4-8.6-8.7-9.2-9.8c-1.4-2.4-2.1-6.8-2.1-6.8" class="st4"/><path d="M648,434.2c0,0-8.4,3.4-9.5,4s-2.3,1.4-1.4,2.4" class="st4"/><path d="M652.7,438.9c0,0-9.4,4.3-10.3,4.8c-0.9,0.4-2,0.5-2.4,0" class="st4"/><path d="M661.3,451.2c0,0-4.1,2.5-7.7,3.8s-6,0.6-7.7-0.3c-1.7-0.8-6.2-2.8-8.2-4.6c-2-1.8-4.8-4.7-6.3-5.4 c-1.5-0.7-3.1-4.4-4.8-5.3s-7.2-4-7.2-4" class="st4"/></g><g><path d="M594.8,432.1l4.6,10.8c0,0-8.6,3.6-14.3,1.6s-9.6-7.2-9.6-7.2l1.7-7.5L594.8,432.1z" class="st5"/><path d="M594.8,435.4c1.3-0.4,2-0.2,2.3,0.3c0.3,0.5,4.4,8.1,4.4,8.1s0.5-0.1,0.9,0.2c0.4,0.2,3.5,3.8,3.7,4 s0.1,0.6,0.1,0.6s5.7,4.9,6.1,5.2c0.4,0.3,2.2,1.2,2.4,2.1c0.2,0.9,0.3,4.6,0,6c-0.3,1.4-3.3,2.8-5.7,3.9 c-2.4,1.1-6.3,1.8-8.2,1.1c-1.9-0.7-8.2-3.3-11.4-6.4c-3.2-3-4.5-4.5-6.9-5.2c-2.4-0.7-6.3-2.9-8-4.2c-1.6-1.3-2.1-1.8-2.1-2.9 c0-1,0.7-3.8,0.7-4.1c0.1-0.3,2.4-10.9,2.5-11.5c0.1-0.6,0.6-0.7,0.6-0.7s4.3,3.5,6.7,6.1c2.5,2.6,3,4.4,3.9,4.7 c0.9,0.3,0.9,0.1,0.9-0.4c-0.1-0.9-0.2-2.4-0.4-3.6c-0.3-1.2,0.6-2.1,1.3-2.6C589.4,435.7,593.2,435.9,594.8,435.4z" class="st6"/><path d="M614.3,455.4c0.3,0.4-0.1,1.1-1,1.6c-0.9,0.5-6.2,3-8,3.7c-1.8,0.7-4.5-0.3-6.3-1.7 c-1.8-1.4-8.6-8.7-9.2-9.8c-1.4-2.4-2.1-6.8-2.1-6.8" class="st4"/><path d="M601.5,443.8c0,0-8.4,3.4-9.5,4s-2.3,1.4-1.4,2.4" class="st4"/><path d="M606.2,448.6c0,0-9.4,4.3-10.3,4.8c-0.9,0.4-2,0.5-2.4,0" class="st4"/><path d="M614.8,460.9c0,0-4.1,2.5-7.7,3.8s-6,0.6-7.7-0.3c-1.7-0.8-6.2-2.8-8.2-4.6c-2-1.8-4.8-4.7-6.3-5.4 c-1.5-0.7-3.1-4.4-4.8-5.3s-7.2-4-7.2-4" class="st4"/></g><g><path d="M647,228.1c0,0,2.6,4.5,2.3,5.6c-0.3,1.1-2.3,13.1-2.3,13.1s0.9,74.9,1.1,78.1c0.2,3.2,0,6.3-0.6,8.6 c-0.6,2.3-6.4,61.9-6.4,61.9s2.8,8.8,2.8,10.9s-1.2,7.8-1.2,7.8s2.1,6.8,2.1,8.3s-1.7,4.7-1.7,4.7s-7.3,3.4-14.3,1.8 c-7-1.7-8.8-4.2-8.8-4.2l0.8-5.4c0,0-2.2-9.8-1.8-15.2c0.4-5.3,0.9-18,0.9-18s-3.3-34.2-2.8-38.9s3.3-18.5,3.3-18.5 s-1.8-3.1-1.6-4.3c0.2-1.2,1.5-4.6,1.5-4.6s-7.6-32.5-8.7-37.9c-1.1-5.4-11-29.7-10.2-52.6L647,228.1z" class="st7"/><path d="M642.7,414c0,0-2,6.5-2,6.8c0,0.3,1.6,0.1,1.6,0.1s-0.4-0.7-0.3-1.6c0.1-0.9,0.9-4.3,0.9-4.3L642.7,414z" class="st8"/><path d="M637.3,408.5c0,0-1.4,4.9-2.2,4.8s-8.5-13.7-10.6-18.6c5.1,8.1,9.8,15.5,10.3,15.9S637.3,408.5,637.3,408.5z" class="st8"/></g><g><path d="M628.6,231.5c0,0,0.2,27.7-0.1,29.7s-6.1,11.8-6.1,11.8s-14.9,58.7-16.5,66.6c-1.6,7.9-10.2,62.5-10.1,64 c0.1,1.5,2.6,11.3,2.3,12.3s-2.3,9.2-2.3,9.2s2.2,5.5,2.1,6.9c-0.1,1.4-2.1,4.7-2.1,4.7s-8.8,3-15.4,1c-6.6-2-6.9-3.8-6.9-3.8 l1.7-7.5c0,0-2.6-10.8-2.2-14.8c0.4-3.9,2.5-14.3,2.5-14.3s-1.6-34.2-0.8-40.9s3.3-15.8,3.3-15.8s-0.3-4.3-0.3-5.8 c0.1-1.5,1.3-4.7,1.3-4.7s-0.5-63.9-0.5-69.8s0.2-24.3,0.2-26.2c0-1.8,1.7-5.2,1.7-5.2L628.6,231.5z" class="st7"/><path d="M595.8,425.1c0,0-2.3,6.5-2.2,6.8c0,0.3,1.6,0.1,1.6,0.1s-0.4-0.7-0.3-1.6c0.1-0.9,1.2-4.4,1.2-4.4 L595.8,425.1z" class="st8"/><path d="M591.1,418.2c0,0-1.6,4.8-2.4,4.7c-0.7-0.1-7.9-14.1-9.7-19.1c4.7,8.4,9.1,16,9.6,16.3 C589,420.5,591.1,418.2,591.1,418.2z" class="st8"/></g><path d="M622.4,273.1c0,0,0.4-28.5,0-41.2" class="st4"/><path d="M647.3,224.5c0,0,0.3,0.1,0.5,0.6c0.1,0.5,0,2.7,0,3.1c0,0.3-0.3,0.8-0.7,1c-0.5,0.3-7,4.4-19.7,4.8 c-31.1,1.1-46-3.8-46.8-4c-0.8-0.2-0.9-0.4-0.8-1.1c0.1-0.7,0.9-3.7,0.9-3.7L647.3,224.5z" class="st9"/><g><path d="M599.2,84.6c0,0-1,22.2-1.4,23.2S572,124.5,572,124.8s13.6,81.3,13.6,81.3l-2.1,19.3c0,0,29.1,7.4,63.5-2.1 l-1.6-12.6c0,0-0.7-88.9-0.8-89.1c-0.1-0.3-23.2-13.6-23.2-13.6l0.7-23.3H599.2z" class="st3"/><path d="M599.3,86.4v-0.5h22.8l-0.7,23.3l0,0l-1.4,2c0,0-2.9,0-3.6,0s-1.7-0.4-2.2-0.8s-8.9-9.3-9.7-10.6 S599.3,86.4,599.3,86.4z" class="st10"/><path d="M599.2,84.6c0,0-1,22.2-1.4,23.2S572,124.5,572,124.8s13.6,81.3,13.6,81.3l-2.1,19.3c0,0,29.1,7.4,63.5-2.1 l-1.6-12.6c0,0-0.7-88.9-0.8-89.1c-0.1-0.3-23.2-13.6-23.2-13.6l0.7-23.3H599.2z" class="st4"/></g><path d="M639.3,77.4c0,0-1.5,10.1-2.2,12.6s-3.8,9.8-12.3,14.3c-6.9-0.4-14.2-3.6-18.3-7.3c-3.2-2.9-7.1-8.9-7.1-8.9 s-8.3-6.4-10-20.7c-1.7-14.3,8.5-29.8,25.5-28.9s25.9,11.3,26.2,21.9S639.3,77.4,639.3,77.4z" class="st2"/><g><path d="M611.4,77.3c0,1.3,1,2.3,2.3,2.3c1.3,0,2.3-1,2.3-2.3c0-1.3-1-2.3-2.3-2.3C612.5,75,611.4,76,611.4,77.3z" class="st8"/><path d="M618.4,77c-1.1-1-2.2-1.6-3.9-1.6c-1.9,0-3.5,1.1-3.5,1.1" class="st4"/><path d="M620.6,71.4c0.5,0.1,0.6,0.3,0.6,0.5c0,0.2-0.3,0.9-1,1.2c-0.7,0.3-1.3,0.1-2.1-0.1 c-0.8-0.2-3.9-1.1-5.5-1.1c-0.9,0-3,0.8-3,0.5c0-0.3,2-1.7,3.3-1.8C614.5,70.5,617.6,70.6,620.6,71.4z" class="st8"/></g><g><path d="M634.8,77.3c0,1.3-0.8,2.3-1.9,2.3s-1.9-1-1.9-2.3c0-1.3,0.8-2.3,1.9-2.3S634.8,76,634.8,77.3z" class="st8"/><path d="M630.5,77c0.9-1,1.8-1.6,3.2-1.6c1.6,0,2.8,1.1,2.8,1.1" class="st4"/><path d="M629.2,71.4c-0.4,0.1-0.5,0.3-0.5,0.5c0,0.2,0.2,0.9,0.7,1.2c0.5,0.3,1,0.1,1.6-0.1c0.6-0.2,3-1.1,4.1-1.1 c0.7,0,2.3,0.7,2.3,0.5c0-0.3-1.5-1.7-2.5-1.8C633.8,70.4,631.5,70.5,629.2,71.4z" class="st8"/></g><path d="M636,41.8c-10.4-6.7-26.5-7.3-30.7-6.1s-8.6,5.6-8.6,5.6s-6.5,3.1-10,10.5s-2.9,22.4,6.1,28.1l4.9-1.5 c0,0,9.6-2.9,14-12.2c0,0-2.1,7.7-3.4,9.5c0,0,1.5,0.4,2.1-0.2c1.6-1.3,3.6-4.7,3.6-4.7s-0.7,2.5-1.1,3.9c2.6-1.5,6.6-8,8.5-14.1 c0,0-1.9,11.6-3.2,13.9c0,0,3-1.4,3.9-2.7c0.9-1.3,3.8-6.2,4.7-13.6c0,0,4.2,10,3.6,16.2c0.8-0.7,3-2.4,3.6-6.1 c0.3-2,0.8-5.7,0.5-8c1.8,5.4,4.7,11.2,5.1,15.5c2.7-3,4.5-10.1,4.5-10.1s0.6,2.6,0.5,3.8c0,0,1.7-2.8,1.8-4 C646.5,64.3,647.3,49.1,636,41.8z" class="st19"/><g><path d="M597.8,77.6c0,0-2.2-2.8-3.1-2.6c-2.5,0.6-2.9,4.1-2.6,5.7c0.3,1.6,3.5,6,4.3,6.8c0.8,0.8,3.7,0.2,3.7,0.2 L597.8,77.6z" class="st3"/><path d="M597.8,77.6c0,0-2.2-2.8-3.1-2.6c-2.5,0.6-2.9,4.1-2.6,5.7c0.3,1.6,3.5,6,4.3,6.8c0.8,0.8,3.4,1,3.4,1 l0.3,0.5" class="st4"/></g><path d="M597.5,107.9c0,0-25.2,16.4-25.8,16.8s-0.7,1.5-0.5,2.4s12.2,79,12.2,79s-4,12.4-4.3,13.8s1.2,6.2,1.2,6.2 s17.2,5.6,48.6,4.1c14.1-0.7,18.6-5.3,18.6-5.3s1.8-3.1,1.8-3.6s-2.7-10.4-2.7-10.4s-1.6-66.1-1.5-68.7c0-2.7,0-18.5,0-19 c0-0.5,0-1.1-0.8-1.7c-0.7-0.6-22.9-13.5-22.9-13.5l-3.7,5.8l-1.8,0.1L597.5,107.9z" class="st2"/><path d="M625.8,183.5c1.5,25,2.7,40.4,3.2,46.6c-0.1,0-0.1,0-0.2,0c-0.1,0-0.2,0-0.3,0c-0.5-6.2-1.7-21.5-3.2-46.6 c-2-33.3-7.8-69.4-7.9-69.8l0.5-0.1C618,114,623.9,150.2,625.8,183.5z" class="st8"/><path d="M615.8,124l-3.2-2.5c0,0-2,1.9-2.4,2.4c-0.5,0.5-1,1.1-2.2,0s-12.6-13.1-12.6-13.1l-0.4-1.2 c1.5-1,2.5-1.7,2.5-1.7l18.5,5.9l1.8-0.1l3.7-5.8c0,0,2,1.1,4.8,2.8c0,2.3,0.1,10.3,0,11c-0.2,0.9-1.1,1.5-1.8,1.1 c-0.7-0.3-2.3-2.3-2.3-2.3l-1.7,3.9l-3.5,5.3L615.8,124z" class="st13"/><g><path d="M622.7,115.4l-1.9,7.5l13.6,92.5c0,0-1.4,7.5-5.4,13.6c0,0-9.1-12.1-9.2-13.6s-3.1-92.2-3.1-92.2l-4-6.3 l0.3-3.2l6.1-0.4L622.7,115.4z" class="st14"/><path d="M631.2,193.8l0.2,1.2l-12,11.6c0-0.4,0-0.9,0-1.3L631.2,193.8z M630.4,188.5l-11.3,10.9 c0,1.4,0.1,2.8,0.1,4l11.6-11.3L630.4,188.5z M632.4,201.8l-12.7,12.3c0,0.7,0,1.2,0.1,1.3c0,0.3,0.4,1,1,1.9l12.2-11.8 L632.4,201.8z M618.9,190.6c0,0.5,0,0.9,0,1.3l10.5-10.2l-0.2-1.2L618.9,190.6z M621.5,218.4c0.2,0.3,0.4,0.6,0.6,0.8l11.3-11 l-0.2-1.2L621.5,218.4z M628.5,175.3l-9.8,9.5c0,1.4,0.1,2.7,0.1,4l10.2-9.9L628.5,175.3z M628.4,228.2l2.3-2.2 c0.4-0.8,0.8-1.7,1.2-2.5l-4,3.9C628,227.7,628.2,228,628.4,228.2z M634.3,215.1l-9.1,8.8c0.6,0.9,1.2,1.7,1.8,2.5l5.9-5.7 c1-3,1.5-5.2,1.5-5.2L634.3,215.1z M616.7,126c0,1.1,0.1,2.4,0.1,4.1l4.4-4.2l-0.4-2.9l0.3-1.1L616.7,126z M618.4,175.9 c0,0.5,0,0.9,0,1.3l9.1-8.8l-0.2-1.2L618.4,175.9z M622.6,135.5l-5.4,5.3c0,1.3,0.1,2.7,0.1,4.1l5.8-5.7L622.6,135.5z M616.9,131.9c0,0.4,0,0.9,0,1.4l4.7-4.5l-0.2-1.2L616.9,131.9z M617.4,146.6c0,0.4,0,0.9,0,1.3l6.1-6l-0.2-1.2L617.4,146.6z M626.5,162l-8.3,8.1c0,1.4,0.1,2.7,0.1,4l8.7-8.5L626.5,162z M624.6,148.7l-6.9,6.7c0,1.3,0.1,2.7,0.1,4l7.3-7.1L624.6,148.7z M617.9,161.2c0,0.5,0,0.9,0,1.4l7.6-7.4l-0.2-1.2L617.9,161.2z" class="st15"/><line x1="620.8" x2="616.6" y1="122.9" y2="123.2" class="st4"/><path d="M622.7,115.4l-1.9,7.5l13.6,92.5c0,0-1.4,7.5-5.4,13.6c0,0-9.1-12.1-9.2-13.6s-3.1-92.2-3.1-92.2l-4-6.3 l0.3-3.2l6.1-0.4L622.7,115.4z" class="st4"/></g><g><g><path d="M581.5,145.8c-3.3-13.9-10.1-20.9-10.1-20.9s-3.3,18.2-4.6,25.2c0,0-11.9,50-11.9,51.7c0,0.1,0,0.2,0,0.3 c0,0,0,0,0,0c0,0.3,0.1,0.8,0.1,1.3c0.6,2.8,3.5,5.9,8.7,5.3c6.1-0.7,8.1-6.3,8.7-8.2l10.2-33.4 C582.8,167.2,584.8,159.7,581.5,145.8z" class="st2"/><path d="M577.8,191c2.6-8,5.3-20.3,6.2-22.7c1.3-3.7,1.4-12.2-1.2-25.1c-2.6-12.9-10.5-19.1-10.5-19.1 s-1.6,1.1-1.9,1.8c-0.3,0.7-3.2,16.5-4.3,22.4c0,0.4-6.1,17.7-12,33.3L577.8,191z" class="st2"/></g><polygon points="554.4 176.4 579.9 186.7 577.9 194.3 551.4 184.9" class="st2"/></g><g><g><path d="M595,109.2l25.7,23c0,0,4-17.5,4.5-22.7c0,0,18.4,10.6,19.2,11.2c0.8,0.6,1.1,2,1,3.5 c0,1.5,2.7,87.8,2.8,88.7c0.1,0.9,2.2,6.8,2.2,8.3s-2,6.4-2,6.4s1.3,5.4,1.3,6.5c0,1.2-0.4,2.3-2.3,3.1 c-1.8,0.8-14.7,5.8-34.2,5.4c-19.5-0.3-34.4-4.7-34.4-4.7s-1.6-0.7-1.4-1.7c0.2-1,0.5-7.3,0.5-7.3s-1.6-4.5-1-7.1 c0.6-2.6,4.8-16.1,4.7-18.4c-0.2-2.3-1.6-16.8-1.6-16.8l2.2-18c0,0,0.5-9.7-2.5-25.2s-8.9-17.9-8.9-17.9s-0.5-0.9,0.5-1.9 C572.2,122.7,595,109.2,595,109.2z" class="st21"/><path d="M571.1,123.6c0,0,6.9,4.6,10.1,16.9s3.2,26.3,2.1,32.8c-1.1,7.1-3.3,15-3.3,15" class="st22"/><g><path d="M577.8,229.9c0,0.6-0.1,1.6-0.1,2.5c7.9,2.3,22.5,5.7,40,5c9.9-0.4,20.6-2,31.6-5.8 c-0.2-0.8-0.3-1.7-0.5-2.4C618.3,239.9,589.5,233.5,577.8,229.9z" class="st23"/><path d="M577.9,229c0,0,41.8,10,70.5-1.3" class="st4"/><path d="M617.7,240.2c9.9-0.4,20.8-2.1,31.9-6c0,0,0,0,0-0.1c0-0.1,0-0.3,0-0.6c-31,11-60.3,4.4-72,0.8 c0,0.2,0,0.4,0,0.6C585.2,237.4,599.9,240.9,617.7,240.2z" class="st23"/></g><path d="M595,109.2l25.7,23c0,0,4-17.5,4.5-22.7c0,0,18.4,10.6,19.2,11.2c0.8,0.6,1.1,2,1,3.5 c0,1.5,2.7,87.8,2.8,88.7c0.1,0.9,2.2,6.8,2.2,8.3s-2,6.4-2,6.4s1.3,5.4,1.3,6.5c0,1.2-0.4,2.3-2.3,3.1 c-1.8,0.8-14.7,5.8-34.2,5.4c-19.5-0.3-34.4-4.7-34.4-4.7s-1.6-0.7-1.4-1.7c0.2-1,0.5-7.3,0.5-7.3s-1.6-4.5-1-7.1 c0.6-2.6,4.8-16.1,4.7-18.4c-0.2-2.3-1.6-16.8-1.6-16.8s5.5-22-0.8-44.9c-4.1-15.2-8.5-16.2-8.5-16.2s-0.5-0.9,0.5-1.9 C572.2,122.7,595,109.2,595,109.2z" class="st4"/></g><path d="M598.1,103l18.4,10.5c0,0-1.4,0.8-2.2,2.5c-0.9,1.7-3.8,6.5-4.1,7c-0.3,0.5-0.7,0.9-1.2,0.5 c-0.5-0.4-13.3-12.4-13.5-12.7c-0.2-0.3-0.5-0.5-0.4-1c0.1-0.5,2.2-6.1,2.3-6.4C597.3,103.1,598.1,103,598.1,103z" class="st2"/><path d="M617.9,113.4c0.8,0,1.4,0.7,1.8,1.1c0.4,0.3,5.3,6.1,5.5,6.4c0.3,0.3,0.6,0.2,0.6-0.2c0-0.4,0.1-9.9,0-10.2 c-0.1-0.3-0.3-0.7-0.6-1c-0.3-0.3-3-2.7-3.1-2.9s-0.6-0.2-0.6-0.2S619,110.7,617.9,113.4z" class="st2"/></g><path d="M627.6,95.3c-3.5-0.1-6.7-1-8.3-2" class="st16"/><path d="M627.8,84.9l0.5,3.3c0,0-0.2,0.5-1,1" class="st16"/><g><path d="M600.5,75.6c0,0-0.7,5.4,0,8.4c-1.9-1.2-3.6-4.9-3.3-8.3L600.5,75.6z" class="st27"/><path d="M602.3,76.3c0,0-1,0.6-2,1c-0.1,1.9-0.3,4.8,0.2,6.7c-1.9-1.2-3.6-4.9-3.3-8.3" class="st4"/></g><g><path d="M563.7,280c-1.5,0.6-3.3-0.1-3.9-1.7l-13.9-34.7c-0.6-1.5,0.1-3.3,1.7-3.9l50.8-20.4 c1.5-0.6,3.3,0.1,3.9,1.7l13.9,34.7c0.6,1.5-0.1,3.3-1.7,3.9L563.7,280z" class="st2"/><path d="M609.8,260.5l-0.6-2.4l4.1-1.7c1.5-0.6,2.3-2.4,1.7-3.9L601,217.9c-0.6-1.5-2.4-2.3-3.9-1.7l-50.8,20.4 c-1.5,0.6-2.3,2.4-1.7,3.9l13.9,34.7c0.6,1.5,2.4,2.3,3.9,1.7l28.2-11.4l1.2,2.2c0.4,0.7,1.3,1,2.1,0.7l14.8-6 C609.5,262.2,610,261.3,609.8,260.5z" class="st24"/><path d="M595.3,253.2c-0.8,0.3-1.8-0.1-2.1-0.9l-7.8-19.3c-0.3-0.8,0.1-1.8,0.9-2.1l7.8-3.1c0.8-0.3,1.8,0.1,2.1,0.9 l7.8,19.3c0.3,0.8-0.1,1.8-0.9,2.1L595.3,253.2z" class="st2"/></g><g><g><path d="M589.6,266.5c-0.3-1.3-5.5-14.7-5.5-14.7s-7.6-29.1-8.6-32.9c-1-3.9-3.4-12.7-3.4-12.7 c-1.9-3.8-8-9.6-13.7-10.3c-2,3.4-3.4,5.6-3.4,5.9c-0.3,1.3-1.2,3.7,0.6,9.3c1.7,5.5,20.1,44.6,20.1,44.6s0,1.9-0.2,4.8 c-0.2,2.9,1.4,8.1,1.6,9.8c0,0.2-1.7,4.4-2.4,5.2c-0.8,0.8-2.4,3-2.5,3.8c-0.1,0.8,0.4,1.3,1,0.8c0.6-0.4,1.5-1,2.3-1.7 c0.8-0.7,1.6-1,2.3-2.3c0.7-1.2,2.3-3.8,2.3-3.8s-0.5,2.6-0.5,3.2c0,0.6-0.1,1.7-0.7,2.8c-0.5,1.1-1,3.4-0.9,4.6 c0.1,1.3,1.4,1.3,1.6,0.8c0.2-0.5,0.8-2.2,1.4-3.4c0.6-1.2,1.2-2.4,1.5-3.5c0.2-1.1,1.3-4.9,1.3-4.9s0,4-0.2,5.5 c-0.2,1.5-0.3,4.2,0.1,5.7c0.3,1.5,1.7,1.3,1.9,0.5c0.2-0.8,1.1-4.9,1.1-4.9s2-2.9,2.4-3.3c0.4-0.5,1-1.9,1-2.7 C590,272.1,589.9,267.9,589.6,266.5z" class="st3"/><path d="M566.8,200.1c2.4,2,4.3,4.3,5.2,6.1c0,0,2.4,8.8,3.4,12.7c1,3.9,8.6,32.9,8.6,32.9s5.2,13.4,5.5,14.7 c0.3,1.3,0.5,5.6,0.5,6.3c0,0.8-0.6,2.2-1,2.7c-0.4,0.5-2.4,3.3-2.4,3.3s-1,4.1-1.1,4.9c-0.2,0.8-1.5,1-1.9-0.5 c-0.3-1.5-0.2-4.2-0.1-5.7c0.2-1.5,0.2-5.5,0.2-5.5s-1,3.8-1.3,4.9c-0.2,1.1-0.9,2.3-1.5,3.5c-0.6,1.2-1.2,2.9-1.4,3.4 c-0.2,0.5-1.5,0.5-1.6-0.8c-0.1-1.3,0.3-3.5,0.9-4.6c0.5-1.1,0.7-2.1,0.7-2.8c0-0.6,0.5-3.2,0.5-3.2s-1.7,2.6-2.3,3.8 c-0.7,1.2-1.5,1.6-2.3,2.3c-0.8,0.7-1.7,1.2-2.3,1.7c-0.6,0.4-1.1,0-1-0.8c0.1-0.8,1.7-3,2.5-3.8c0.8-0.8,2.4-5,2.4-5.2 c-0.2-1.7-1.8-6.9-1.6-9.8c0.2-2.9,0.2-4.8,0.2-4.8s-18.3-39-20.1-44.6c-1.7-5.5-0.9-8-0.6-9.3l0.8-4" class="st4"/></g><path d="M586.6,278.8c0,0,0.6-2.2,0.8-3.1c0.2-0.9,0.3-5.3,0.4-6.2c0.1-0.9,0.3-1.2,0.3-1.2" class="st4"/></g></g><g><g><g><g><path d="M263,245.9c0,0,1.1,76.9,2.2,86.9c2,18.5,4.3,55,6.3,68.5c2,13.4,0.5,21.1,0.1,22 c-0.3,0.8-7.4,9.7-10.1,12.6c-2.7,2.9-9.3,8.8-10.7,9.9c-1.4,1.1-1.3,4,0.3,5.4c1.6,1.4,5.9,3.7,10.7,2.8 c4.7-1,10.2-5.9,13.3-7.3c3.1-1.5,6.7-2.5,9.2-3.9c2.6-1.4,4-2.7,3.9-5.5c-0.1-2.8-2.3-11-2.2-12c0.1-0.9,0-3.5,0-4.7 c-0.1-1.3-0.5-2.4-0.5-5.7c0-3.3,3.4-39.7,4.3-45.7c1.2-8.1,0.7-15.7-1.2-22.5c-1.8-6.8-2.1-15.1-2-20.7 c0.1-5.6,16.4-59,16.4-59c1.4-11.4,2.2-25.4-0.1-32.4c-2.3-7-8.1-11.2-21.7-11.9C271.2,222.1,263.5,231.4,263,245.9z" class="st3"/><path d="M302.8,234.6c-2.3-7-8.1-11.2-21.7-11.9c-9.9-0.5-17.6,8.8-18.1,23.3c0,0,0.6,41.5,1.3,67.5 c4.7,0.9,11.1,1.6,19.7,1.8c1.6,0,3.3,0,4.9,0c4.6-17.2,14-48.2,14-48.2C304.3,255.5,305.1,241.6,302.8,234.6z" class="st10"/><path d="M261.7,453.9c4.7-1,10.2-5.9,13.3-7.3c3.1-1.5,6.7-2.5,9.2-3.9c2.6-1.4,4-2.7,3.9-5.5 c-0.1-2.8-2.1-11-2-12c0.1-0.9,0-3.4-0.1-4.7c-0.1-1.3-0.5-2.4-0.5-5.7c0-3.3,3.6-39.7,4.4-45.7c1.2-8.1,0.5-15.8-1.3-22.6 c-0.1-0.5-0.4-1-0.5-1.5c-10.4,3.5-18.6,2.4-21.6,1.8c1.6,19.1,3.2,43.8,4.8,54.4c2,13.4,0.3,21,0,21.8 c-0.3,0.8-7.1,9.9-9.8,12.8c-2.7,2.9-9.3,8.8-10.7,9.9c-1.4,1.1-1.3,4,0.3,5.4C252.7,452.5,256.9,454.9,261.7,453.9z" class="st17"/><path d="M288.1,345.1c-10.4,3.5-18.6,2.4-21.6,1.8" class="st4"/><path d="M263,245.9c0,0,1.1,76.9,2.2,86.9c2,18.5,4.3,55,6.3,68.5c2,13.4,0.5,21.1,0.1,22 c-0.3,0.8-7.4,9.7-10.1,12.6c-2.7,2.9-9.3,8.8-10.7,9.9c-1.4,1.1-1.3,4,0.3,5.4c1.6,1.4,5.9,3.7,10.7,2.8 c4.7-1,10.2-5.9,13.3-7.3c3.1-1.5,6.7-2.5,9.2-3.9c2.6-1.4,4-2.7,3.9-5.5c-0.1-2.8-2.3-11-2.2-12c0.1-0.9,0-3.5,0-4.7 c-0.1-1.3-0.5-2.4-0.5-5.7c0-3.3,3.4-39.7,4.3-45.7c1.2-8.1,0.7-15.7-1.2-22.5c-1.8-6.8-2.1-15.1-2-20.7 c0.1-5.6,16.4-59,16.4-59c1.4-11.4,2.2-25.4-0.1-32.4c-2.3-7-8.1-11.2-21.7-11.9C271.2,222.1,263.5,231.4,263,245.9z" class="st4"/></g><path d="M286.9,270.6l3.1,40.2c3.7-13.6,9.4-32.4,11.7-40.2H286.9z" class="st18"/></g><g><path d="M266.9,430c-1.2-0.4-1.9-0.2-2.2,0.3c-0.3,0.5-3.1,4.9-3.1,4.9s-0.5-0.1-0.8,0.1c-0.4,0.2-3.3,3.7-3.5,3.8 c-0.2,0.2-0.1,0.6-0.1,0.6s-5.4,4.7-5.8,5c-0.4,0.3-2.1,1.1-2.3,2c-0.2,0.8-0.3,4.4,0,5.7c0.3,1.3,3.1,2.7,5.4,3.7 s6,1.7,7.9,1.1s7.8-3.2,10.9-6.1s4.3-4.3,6.6-5c2.3-0.7,6-2.7,7.6-4s2-1.7,2-2.7s-0.6-3.6-0.7-3.9s-1.1-5.1-1.3-5.7 c-0.1-0.6-0.6-0.6-0.6-0.6s-2.8,4.3-5.4,6.4c-2.6,2.1-6.2,3.5-7.1,3.8c-0.9,0.3-1.4-0.1-1.2-0.6c0.2-0.5,1-2.6,1.3-3.7 s-0.5-2-1.3-2.5C272.3,432.3,268.3,430.5,266.9,430z" class="st6"/><path d="M249.5,446c-0.5,0.7,0.1,1.7,0.9,2.1c0.8,0.4,5.1,2.5,7.3,3.1c2.1,0.6,4.4,0.4,5.8-0.8s7.6-7.7,8.3-8.6 c0.7-0.9,1.5-3.5,1.5-3.5" class="st4"/><path d="M261.5,435.3c0,0,8.6,4.1,9.4,4.7s1,1.7,0.6,2.2" class="st4"/><path d="M257.1,439.8c0,0,9.4,4.4,10,4.8c0.7,0.3,1.7,0.5,2.1,0" class="st4"/><path d="M248.8,450.7c0,0.8,0.8,1.5,2.2,2.3s4.4,2.1,6.7,2.6c2.3,0.5,4.3,0.3,6-0.6c1.7-0.9,5.5-2.6,7.8-4.6 c2.3-2.1,5.1-5.1,6.7-5.8c1.6-0.7,3.2-2.5,4-3.8c0.8-1.3,6.6-4.8,6.6-4.8" class="st4"/></g></g><g><g><path d="M282.6,253.3c0,0,18.7,75.6,21.5,85.3c2.8,9.7,16.5,54,19.8,67.2c3.3,13.2,2.6,21,2.3,21.8 s-6.4,10.4-8.8,13.6s-8.4,9.7-9.7,10.9s-0.9,4.1,0.8,5.3s6.3,3.1,10.9,1.7s9.6-6.9,12.5-8.6s6.4-3.1,8.8-4.8s3.7-3.1,3.3-5.8 s-3.4-10.8-3.4-11.7s-0.3-3.4-0.5-4.7s-0.8-2.3-1.1-5.6s-2.6-39.2-3.1-45.2s-2.4-16.7-4.9-23.3s-6.1-14.6-6.5-20.3 s2.8-59.1,2.8-59.1c0.3-11.5,0.1-24.5-2.9-31.3c-3-6.7-13.6-13.6-26.6-9.7S280.6,241.8,282.6,253.3z" class="st3"/><path d="M325.2,310.8c0.8-17.5,2.3-40.8,2.3-40.8c0.1-5.5,0.2-11.3-0.2-16.6c-0.6-2.8-1.1-4.9-1.5-6.1 c-1.5-4.2-5.2-10.8-8.3-16.1c-4.9-3-11.8-4.5-19.6-2.2c-13,3.9-17.4,12.7-15.4,24.2c0,0,8.9,36,15.4,61.5 C308.9,314,318.5,312.3,325.2,310.8z" class="st10"/><path d="M323.9,405.7c3.3,13.2,2.5,20.9,2.2,21.8s-6.2,10.4-8.6,13.5s-8.4,9.7-9.7,10.9s-0.9,4.1,0.8,5.3 s6.3,3.1,10.9,1.7s9.6-6.9,12.5-8.6s6.4-3.1,8.8-4.8s3.7-3.1,3.3-5.8s-3.2-10.7-3.2-11.6s-0.3-3.5-0.4-4.7s-0.8-2.4-1.1-5.7 s-2.7-39.3-3.1-45.3s-2.3-16.7-4.8-23.2c-0.7-1.8-1.7-3.8-2.5-5.8c-7.8,4.9-18.1,6-21.4,6.2 C312.7,366.8,321.3,395.6,323.9,405.7z" class="st17"/><path d="M328.9,343.6c-7.8,4.9-18.1,6-21.4,6.2" class="st4"/><path d="M282.6,253.3c0,0,18.7,75.6,21.5,85.3c2.8,9.7,16.5,54,19.8,67.2c3.3,13.2,2.6,21,2.3,21.8 s-6.4,10.4-8.8,13.6s-8.4,9.7-9.7,10.9s-0.9,4.1,0.8,5.3s6.3,3.1,10.9,1.7s9.6-6.9,12.5-8.6s6.4-3.1,8.8-4.8s3.7-3.1,3.3-5.8 s-3.4-10.8-3.4-11.7s-0.3-3.4-0.5-4.7s-0.8-2.3-1.1-5.6s-2.6-39.2-3.1-45.2s-2.4-16.7-4.9-23.3s-6.1-14.6-6.5-20.3 s2.8-59.1,2.8-59.1c0.3-11.5,0.1-24.5-2.9-31.3c-3-6.7-13.6-13.6-26.6-9.7S280.6,241.8,282.6,253.3z" class="st4"/></g><g><path d="M322.9,433c-1.2-0.4-1.9-0.2-2.2,0.3s-3.1,4.9-3.1,4.9s-0.5-0.1-0.8,0.1c-0.4,0.2-3.3,3.7-3.5,3.8 c-0.2,0.2-0.1,0.6-0.1,0.6s-5.4,4.7-5.8,5c-0.4,0.3-2.1,1.1-2.3,2c-0.2,0.8-0.3,4.4,0,5.7c0.3,1.3,3.1,2.7,5.4,3.7 s6,1.7,7.9,1.1c1.8-0.6,7.8-3.2,10.9-6.1c3-2.9,4.3-4.3,6.6-5c2.3-0.7,6-2.7,7.6-4s2-1.7,2-2.7s-0.6-3.6-0.7-3.9 c-0.1-0.3-1.1-5.1-1.3-5.7c-0.1-0.6-0.6-0.6-0.6-0.6s-2.8,4.3-5.4,6.4c-2.6,2.1-6.2,3.5-7.1,3.8c-0.9,0.3-1.4-0.1-1.2-0.6 c0.2-0.5,1-2.6,1.3-3.7s-0.5-2-1.3-2.5C328.4,435.2,324.4,433.4,322.9,433z" class="st6"/><path d="M305.6,449c-0.5,0.7,0.1,1.7,0.9,2.1c0.8,0.4,5.1,2.5,7.3,3.1c2.1,0.6,4.4,0.4,5.8-0.8s7.6-7.7,8.3-8.6 c0.7-0.9,1.5-3.5,1.5-3.5" class="st4"/><path d="M317.6,438.2c0,0,8.6,4.1,9.4,4.7c0.8,0.6,1,1.7,0.6,2.2" class="st4"/><path d="M313.1,442.7c0,0,9.4,4.4,10,4.8c0.7,0.3,1.7,0.5,2.1,0" class="st4"/><path d="M304.9,453.6c0,0.8,0.8,1.5,2.2,2.3s4.4,2.1,6.7,2.6c2.3,0.5,4.3,0.3,6-0.6c1.7-0.9,5.5-2.6,7.8-4.6 c2.3-2.1,5.1-5.1,6.7-5.8c1.6-0.7,3.2-2.5,4-3.8c0.8-1.3,6.6-4.8,6.6-4.8" class="st4"/></g></g><path d="M266.4,70.5c-3,6-5.1,13.5-2.8,20.7c2.3,7.2,4.5,9.6,4.5,9.6s-1.2,6.7-2.7,11.3c-1.5,4.6-2.6,12,3.9,16.4 c-1.5-2.9-2.1-6.4-2-8.7c1.8,6.2,9.6,16.9,26.2,16.2c16.6-0.7,21.6-3.5,23.9-5.6c2.3-2.1,6.6-24.8-0.7-38.7 C309.4,78.1,279.1,63.3,266.4,70.5z" class="st28"/><g><g><path d="M247.6,264.8c0,0,1.5,4.2,1.9,5.2c0.5,1,0.9,1.4,1.5,1.9c0.6,0.6,1.9,1.9,2.2,2.2s0.8,0.2,0.8-0.1 c0-0.4-0.1-1.5-0.6-2.3c-0.5-0.8-1.6-1.9-1.7-2.2c-0.1-0.3-1.6-5.6-1.6-5.6L247.6,264.8z" class="st2"/><path d="M252,263.6c0,0,2.7,3.2,3.4,3.9c0.7,0.7,1.3,0.9,2,1.2c0.7,0.3,2.4,1.1,2.7,1.2c0.3,0.2,0.8-0.1,0.7-0.4 c-0.1-0.3-0.6-1.3-1.3-1.9c-0.8-0.6-2-1.1-2.3-1.4c-0.2-0.2-3.3-4.5-3.3-4.5L252,263.6z" class="st2"/><path d="M253.6,262.8c0,0,2.6,2.1,3.3,2.6c0.7,0.5,1.2,0.5,1.8,0.6c0.6,0.1,2,0.5,2.3,0.5c0.3,0.1,0.6-0.2,0.5-0.4 c-0.1-0.3-0.7-1-1.4-1.3c-0.7-0.3-1.8-0.6-2-0.7c-0.2-0.2-3.3-3-3.3-3L253.6,262.8z" class="st2"/><path d="M249.2,263.6c0,0,2.8,5,3.4,5.9c0.6,0.9,1.1,1.2,1.8,1.7c0.7,0.5,2.2,1.6,2.5,1.8c0.3,0.2,0.8,0.1,0.8-0.3 c0-0.4-0.3-1.5-1-2.2c-0.7-0.7-1.9-1.6-2.1-1.9c-0.2-0.3-2.5-5.3-2.5-5.3L249.2,263.6z" class="st2"/><g><path d="M247.5,257.2c0,0,0,5.7,0,6.5c0,0.9,0,1.5,0.7,1.3c0.7-0.2,4.7-1.6,5.7-1.9c1-0.3,1.7-0.7,1.8-1.6 c0.1-0.9,0.8-3.6,0.7-5.7c-0.1-2.1-0.4-3.9-0.2-4.8l-4.1,0C252.1,250.9,248.1,253.4,247.5,257.2z" class="st3"/><path d="M252,262.7c0-0.2,1-2.4,1.5-4.1c0.5-1.7,0.1-5.6,0.1-5.6l-3.6-0.3c-1,1.1-2.1,2.6-2.4,4.4 c0,0,0,5.7,0,6.5c0,0.9,0,1.5,0.7,1.3c0.2-0.1,0.8-0.3,1.5-0.5C252.7,263.9,252,262.9,252,262.7z" class="st10"/><path d="M247.5,257.2c0,0,0,5.7,0,6.5c0,0.9,0,1.5,0.7,1.3c0.7-0.2,4.7-1.6,5.7-1.9c1-0.3,1.7-0.7,1.8-1.6 c0.1-0.9,0.8-3.6,0.7-5.7c-0.1-2.1-0.4-3.9-0.2-4.8l-4.1,0C252.1,250.9,248.1,253.4,247.5,257.2z" class="st4"/></g><g><path d="M273.9,131.6c0,0-5.7,30.2-6.8,39.3c-1.1,9.2-5,28.6-5.4,30.4c-0.4,1.8-4.4,10-5.5,19.6 c-1.1,9.7-2.2,17.1-6.2,28.2c-2,5.4-2.4,7-2.5,7.6c-0.1,0.6,0.3,4.4,0.4,5.4c0.1,0.9,1,2.9,1.2,3.6c0.2,0.7,0.3,1.3,0.7,1.1 c0.4-0.2,1-1.1,0.8-2.7c-0.2-1.6-0.5-2.3-0.4-2.7c0.1-0.4,1.9-2.4,2.8-4.8c0.9-2.5,0.3-4.4,0.3-4.7c0.1-0.5,2.3,0.4,2.9-1.1 c0.6-1.5,8.1-16.9,10.7-24.2c2.6-7.3,4.5-12.9,4.6-17c0.2-4.1,0.8-6.4,1.3-7.9c0.5-1.5,8.3-24.7,11.3-34.9 c3.1-10.1,6-17.9,6.2-23.4C290.7,137.8,279.7,125.7,273.9,131.6z" class="st3"/><path d="M253.4,251.9c0,0.3,0.5,2.2-0.3,4.7c-0.9,2.5-2.7,4.4-2.8,4.8c-0.1,0.4,0.2,1.1,0.4,2.7 c0.2,1.6-0.4,2.5-0.8,2.7c-0.4,0.2-0.5-0.4-0.7-1.1c-0.2-0.7-1.1-2.7-1.2-3.6c-0.1-0.9-0.6-4.8-0.4-5.4 c0.1-0.6,0.6-2.1,2.5-7.6c3.9-11.1,5.1-18.5,6.2-28.2c1.1-9.7,5-17.9,5.5-19.6c0.4-1.8,4.3-21.2,5.4-30.4 c1.1-9.2,6.8-39.3,6.8-39.3c5.7-5.9,16.8,6.2,16.5,11.8c-0.3,5.6-3.2,13.3-6.2,23.4c-3.1,10.1-10.8,33.4-11.3,34.9 c-0.5,1.5-1.1,3.7-1.3,7.9c-0.2,4.1-2,9.7-4.6,17c-2.6,7.3-10.1,22.7-10.7,24.2c0,0-0.2,0.4-0.2,1.4" class="st4"/></g></g><g><path d="M273.5,131.8c0,0-9,48.8-9.7,53c-0.7,4.1-2.7,12.5-3.3,13.4c-0.6,0.9-1.5,2.1-1.3,3 c0.2,0.9,0.3,1.5,0.3,1.5s-1.8,1.2-2,1.8c-0.2,0.6,0.3,4.3,0.3,4.3s-0.6,0.1-0.7,1.1c-0.1,1-1.5,9.7-1.5,10.1 c0.1,0.3,0.7,1.4,0.7,1.4s12.1,4,13.7,4.2c1.6,0.2,1.8-0.2,1.9-0.7c0.2-0.5,2.6-7.9,2.8-9c0.2-1.1-0.4-1.8-0.7-2.3 c1.4-1.6,2.8-2.6,2.3-3.6c-0.5-1-1.2-1.9-1.2-1.9s1.2-1.4,1.2-2.2c0-0.8-0.6-2.2-0.6-2.2s5.1-16.6,7.4-24.6 c2.4-7.9,5.1-15.1,5.1-23.9C288.3,146.2,282.7,133.7,273.5,131.8z" class="st2"/><line x1="257.7" x2="273.9" y1="208.8" y2="213.6" class="st4"/></g></g><g><g><path d="M308,103.1c0,0-0.9,14.9-0.4,19.3s1.7,6.9,6.6,9.2c4.9,2.3,9.6,4.3,11.8,7.4c2.1,3-3,21.5-6.3,30.1 c-3.3,8.7-10.4,30-11.2,41.8c7.3,10.8,15.4,24,16.1,27.8c0,0-21.8,4-42,14.5c-10.5-5.4-19.6-7.4-19.6-7.4s4.2-27.8,4.2-32.6 s-1.2-34.3-1.2-34.3s-4.6-13.9-3.8-17.7s8.8-20.4,9.1-20.9c1.1-3.3,2.3-7.6,2.6-8.3s0.8-1.4,2.3-1.8c1.4-0.4,7.9-2.8,9.1-3.2 c1.2-0.5,2.1-1.3,2.2-2.3c0.1-0.9,1.9-21.6,1.9-21.6H308z" class="st3"/><path d="M289.2,103.1c0,0-1,12.1-1.6,18.2c0.4,1.3,1.3,3.4,2.6,3.2c1.8-0.3,10.6-3.4,17.5-20.4v-1H289.2z" class="st10"/><path d="M308,103.1c0,0-0.9,14.9-0.4,19.3s1.7,6.9,6.6,9.2c4.9,2.3,9.6,4.3,11.8,7.4c2.1,3-3,21.5-6.3,30.1 c-3.3,8.7-10.4,30-11.2,41.8c7.3,10.8,15.4,24,16.1,27.8c0,0-21.8,4-42,14.5c-10.5-5.4-19.6-7.4-19.6-7.4s4.2-27.8,4.2-32.6 s-1.2-34.3-1.2-34.3s-4.6-13.9-3.8-17.7s8.8-20.4,9.1-20.9c1.1-3.3,2.3-7.6,2.6-8.3s0.8-1.4,2.3-1.8c1.4-0.4,7.9-2.8,9.1-3.2 c1.2-0.5,2.1-1.3,2.2-2.3c0.1-0.9,1.9-21.6,1.9-21.6H308z" class="st4"/></g><g><path d="M312.4,215.6c0,0,9.1,12.4,13.1,26c7.9,27,10.9,61.6,10.9,61.6c-5.1,1.4-12.9,1.2-12.9,1.2v2.8 c0,0-5.8,1.9-15.3,0.1c-7.5,3.3-14.8,2.8-14.8,2.8l-0.3-2c-6.8,2.8-15.7,2.4-15.7,2.4L277,308c-7.2,2.1-14.9,1.7-14.9,1.7 l0.5-3.2c-7.4,0-12.1-3-12.1-3l14.7-87.2l0.8-16.4h44.8L312.4,215.6z" class="st20"/></g><path d="M265.2,215.7c0,0,21.1,4.2,47.2-0.1" class="st4"/><line x1="262.6" x2="271.2" y1="306.5" y2="216.6" class="st4"/><line x1="277" x2="280.1" y1="308" y2="217.3" class="st4"/><line x1="293.1" x2="288.8" y1="308" y2="217.5" class="st4"/><line x1="308.2" x2="297.8" y1="307.3" y2="217.3" class="st4"/><path d="M323.5,305c0,0-6.4-55-16.1-88.7" class="st4"/></g><path d="M323.2,136.3c0,0,7,5.2,11,12.1s5.9,11.1,7.8,13.5s22.7,26.2,23.6,27.3c0.9,1.2,1,1.4,1.2,1.8 c0.2,0.4-3.3,4.3-7.6,4.7c-4.4,0.4-8.2-2.9-8.2-2.9s-25-24.4-26.3-25.6s-5-1.6-6.5-3.1c-1.5-1.5-3.1-10.4-1.9-17 S321.9,135.2,323.2,136.3z" class="st29"/><g><path d="M269.7,95c0.8,4.8,0.6,10.7,5.3,17c4.7,6.3,10.2,8.2,10.7,8.2s16.3-4.5,21.9-14.2c5-2.5,12.3-14.4,9.8-29.8 S300.6,55.2,286,58.9c-13.8,3.5-18.6,15.4-18.3,23.6S269.2,91.1,269.7,95z" class="st2"/><g><path d="M295.7,94.3c0,1.2-1,2.3-2.2,2.3c-1.2,0-2.3-1-2.3-2.2c0-1.2,1-2.3,2.2-2.3 C294.6,92.1,295.6,93.1,295.7,94.3z" class="st8"/><path d="M288.8,94.1c1-1,2.2-1.6,3.8-1.6c1.9,0,3.4,1,3.4,1" class="st4"/><path d="M286.6,88.7c-0.5,0.1-0.6,0.3-0.6,0.5c0,0.2,0.3,0.4,0.6,0.6c0.7,0.3,1.7,0,2.5-0.2 c0.8-0.2,3.8-0.5,5.3-0.5c0.9,0,3,0.7,2.9,0.4c0-0.3-1.9-1.7-3.2-1.7C292.6,87.6,289.5,87.8,286.6,88.7z" class="st8"/></g><g><path d="M272.8,94.9c0,1.2,0.8,2.1,1.8,2.1c1,0,1.7-1,1.7-2.1c0-1.2-0.8-2.1-1.8-2.1 C273.6,92.8,272.8,93.8,272.8,94.9z" class="st8"/><path d="M276.8,94.6c-0.8-0.9-1.7-1.4-2.9-1.4c-1.4,0-2.6,1-2.6,1" class="st4"/><path d="M277.8,89.6c0.3,0.1,0.4,0.3,0.4,0.4c0,0.2,0,0.2-0.5,0.5c-0.5,0.3-0.9,0.1-1.5-0.1 c-0.6-0.2-2.7-0.5-3.8-0.5c-0.6,0-2.1,0.7-2.1,0.5c0-0.2,1.2-1.1,2.1-1.2C273.6,89.1,275.7,88.8,277.8,89.6z" class="st8"/></g><path d="M280.5,110.5c3.5-0.1,6.7-1,8.3-2" class="st16"/><path d="M279.5,100l-0.9,3.6c0,0,0.2,0.5,1,1" class="st16"/><g><g><path d="M273.6,100.2l-1.1,0.8c-0.1,0-0.2,0-0.2,0c0,0,0-0.1,0-0.2l0.8-1.2c0.1-0.2,0.4-0.2,0.5-0.1 C273.7,99.7,273.8,99.9,273.6,100.2C273.6,100.1,273.6,100.2,273.6,100.2z" class="st26"/></g><g><path d="M275.2,100.1l-1.1,0.8c-0.1,0-0.2,0-0.2,0c0,0,0-0.1,0-0.2l0.8-1.2c0.1-0.2,0.4-0.2,0.5-0.1 C275.3,99.6,275.4,99.9,275.2,100.1C275.2,100.1,275.2,100.1,275.2,100.1z" class="st26"/></g><g><path d="M276.8,100.1l-1.1,0.8c-0.1,0-0.2,0-0.2,0c0,0,0-0.1,0-0.2l0.8-1.2c0.1-0.2,0.4-0.2,0.5-0.1 C277,99.6,277,99.8,276.8,100.1C276.9,100,276.8,100.1,276.8,100.1z" class="st26"/></g><g><path d="M292.2,99.7l-1.1,0.8c-0.1,0-0.2,0-0.2,0c0,0,0-0.1,0-0.2l0.8-1.2c0.1-0.2,0.4-0.2,0.5-0.1 C292.4,99.2,292.4,99.4,292.2,99.7C292.3,99.6,292.2,99.7,292.2,99.7z" class="st26"/></g><g><path d="M293.8,99.6l-1.1,0.8c-0.1,0-0.2,0-0.2,0c0,0,0-0.1,0-0.2l0.8-1.2c0.1-0.2,0.4-0.2,0.5-0.1 C294,99.1,294,99.4,293.8,99.6C293.9,99.6,293.9,99.6,293.8,99.6z" class="st26"/></g><g><path d="M295.4,99.6l-1.1,0.8c-0.1,0-0.2,0-0.2,0c0,0,0-0.1,0-0.2l0.8-1.2c0.1-0.2,0.4-0.2,0.5-0.1 C295.6,99.1,295.6,99.3,295.4,99.6C295.5,99.5,295.5,99.6,295.4,99.6z" class="st26"/></g></g></g><g><path d="M271.1,74.6c1.5,9.5,7,17,7.5,17.5s2.1,0.7,2.1,0.7s-1.9-6.4-2.5-10.1c1.9,4.8,4.4,7.9,5,8.4 c0.6,0.6,2.7,1.4,2.7,1.4s-2.1-7.4-3.3-11.8c5.3,5.3,16.9,13.5,26.5,14.6l5.8,3.1c0,0,6.5-12.8,4.9-23.3s-10.9-21-27.1-20.3 c-18,0.7-23.7,11.7-23.7,11.7s-5.1,5.5-4.5,13.6s5.1,11.9,5.1,11.9h0.6C270.3,91.9,268.7,82.6,271.1,74.6z" class="st30"/><path d="M265.5,85.3c1.5,4.5,4.1,6.6,4.1,6.6h0.6c0,0-1.5-9.3,0.8-17.3c1.5,9.5,7,17,7.5,17.5s2.1,0.7,2.1,0.7 s-1.9-6.4-2.5-10.1c1.9,4.8,4.4,7.9,5,8.4c0.6,0.6,2.7,1.4,2.7,1.4s-2.1-7.4-3.3-11.8c5.3,5.3,16.9,13.5,26.5,14.6l5.8,3.1 c0,0,6.5-12.8,4.9-23.3s-10.9-21-27.1-20.3c-18,0.7-23.7,11.7-23.7,11.7s-2,2.1-3.3,5.7c0,0-1.2,2.6-2,5" class="st4"/></g><g><path d="M308,98.9c0,0,0.1-2.4,0.6-3.7c0.4-1.2,2.6-3.5,3.5-3.1c0.9,0.3,3.7,2.6,2.9,6.2c-0.8,3.7-3.6,6.4-4.9,7.1 s-2.5,0.6-2.5,0.6L308,98.9z" class="st3"/><path d="M315,98.4c0.8-3.7-2-5.9-2.9-6.2c0,0,0.9,6.2,1.3,9.9C314.1,101,314.7,99.8,315,98.4z" class="st10"/><path d="M308.6,95.3c0.4-1.2,2.6-3.5,3.5-3.1c0.9,0.3,3.7,2.6,2.9,6.2c-0.8,3.7-3.6,6.4-4.9,7.1s-2.5,0.6-2.5,0.6" class="st4"/></g><path d="M321.2,217.7c0,0-10.4-0.7-11.2-0.9c-0.8-0.2-4.4-1.3-4.9-1.3s-1.2,0.4-1.7,0.8s-2.4,1.5-2.7,1.7 s-0.9,1.5-1.4,2.3s-1.3,1.9-1.4,2s0.2,0.9,1.5,0.4s2.1-2.1,2.5-2.4s3-1.2,3.4-1.2s2,0.4,2,0.4s-3.1,3.1-3.5,3.6s-1.7,2.8-2.3,3.5 s-1.8,1.9-1.6,2.2c0.2,0.3,1.9,0.8,3.2-0.4c1.3-1.2,2.7-3.3,3.1-3.6s2.3-1.5,2.3-1.5s-1.7,2.7-1.9,3.1s-1.4,3.6-1.9,4.4 c-0.5,0.7-0.7,1.3-0.3,1.5c0.4,0.2,1.7,0.4,3.1-1.4s1.5-3,2-3.7c0.6-0.7,2.4-2,2.4-2s-0.5,2.3-0.7,3s-0.1,1.9-0.2,2.6 s0,2.2-0.1,2.8s0.5,0.8,1,0.4s1.2-1.2,1.5-2.5s0.2-1.5,0.3-1.8s0.8-1.3,0.8-1.3s4.8,0.1,6.6-0.7c1.8-0.8,3.3-2.5,4.2-3.1 c0.9-0.5,27.8-15,32.7-18.9s6.3-5.8,7.6-9.1s1.9-5.4,1.4-6.1s-5.9-2.8-10.3-0.9s-6.1,2.9-9.1,5.8S340.9,206.1,321.2,217.7z" class="st2"/><g><path d="M307.6,80.4c0,0,7.4,13.5,7.8,24.3s-2.7,15.3-3.3,16s0.7,7,5.3,9.8c2.2-1.7,4.5-6.9,4.5-6.9 c-0.8,3.1-0.2,7,1.4,8.1c0,0-0.5-4.3,1.1-8.2s3.7-6.5,3.5-14.8c-0.3-8.3-3.9-14.3-5.3-19.7c-1.4-5.5-2-10.2-2.5-13.1L307.6,80.4z" class="st30"/><path d="M317.4,130.6c2.2-1.7,4.5-6.9,4.5-6.9c-0.8,3.1-0.2,7,1.4,8.1c0,0-0.5-4.3,1.1-8.2s3.7-6.5,3.5-14.8 c-0.3-8.3-3.9-14.3-5.3-19.7c-1.4-5.5-2-10.2-2.5-13.1" class="st4"/><path d="M307.6,80.4c0,0,7.4,13.5,7.8,24.3" class="st4"/></g><g><path d="M307.2,94.1c-2.2,1.8-3.2,7.9-0.6,11.1c-0.2-3,1.3-8,2.4-10.8L307.2,94.1z" class="st30"/><path d="M307.2,94.1c-2.2,1.8-3.2,7.9-0.6,11.1c-0.2-3,1.3-8.6,2.6-10.9" class="st4"/></g><g><g><path d="M290.9,128.7l-1.3-0.2l-5.7-1.6c0,0-8.1,3.1-9,3.6c-0.9,0.4-1.5,1.1-1.8,2.3c-0.3,1.2-4.8,12.5-5.6,14.1 s-5.9,12.4-5.7,15.9c0.2,3.5,2.4,18.7,2.7,23.1s-0.9,11.8-0.8,12.6c0.1,0.8,2,2.3,2.8,2.6s11.8,1.4,25,1.3s19.4-1.9,19.4-1.9 s5.6-4.7,5.8-5.2s-2.5-6.1-1.9-8.1c0.6-2,11.9-27.3,12.8-35.3c0.9-8-1.6-14.2-3-15.3s-11.6-5.4-14.9-8.8L290.9,128.7z" class="st3"/><path d="M315.7,169l4.3,5.1c0.5-1.3,2-5.1,2.5-6.3L315.7,169z" class="st13"/><path d="M309.6,127.7l-18.6,1l-1.3-0.2l-5.7-1.6c0,0-0.8,0.3-1.9,0.7l-0.3,6.4c0,0,6.5,2.3,9.3,2.8 c2.8,0.6,7.4,2.5,7.7,2.3s2.6-2.4,2.6-2.4l10.1-7.6C310.7,128.7,310,128.2,309.6,127.7z" class="st13"/><path d="M301.2,135.2c-0.4-0.3-4.2-1.4-7.8-2.1c2.6-1.2,4.6-2.8,4.6-2.8l-1.5-1.6c-1.8,1.5-4.7,3.3-5.8,4 c-0.2,0-0.3-0.1-0.5-0.1c-0.4-0.4-0.9-0.6-1.5-0.5c-0.3,0-0.6,0.1-0.8,0.3c-1.1-1.5-1.5-3.8-1.5-3.8l-1.8,1.6 c0.5,1.2,1.1,2.1,1.7,2.8c-2.5,0.8-6.8,2.2-7.3,2.6c-0.7,0.6,0,1.5,0.2,2c0.1,0.3,1,1.5,1.7,2.5c-1.9,2.6-3.2,4.8-3.2,5 c0,0.5,0.8,2.6,3.5,4.4c2.7,1.9,4.9,2.4,5.5,1.1c0.5-1.1,1.6-11.6,1.9-14.6c0.1,0,0.1,0,0.2,0c0.4,2.9,0.8,13.9,0.9,14.6 c0.1,0.8,1.4,2,2.8,1.3c1.4-0.7,6.6-4,7.4-4.6c0.8-0.6,0.9-1,0.6-1.7c-0.1-0.3-0.6-2.7-1.8-4.2c0.8-1,1.9-2.4,2.4-3.4 C301.7,136.3,301.8,135.7,301.2,135.2z" class="st13"/><path d="M290.9,128.7l-1.3-0.2l-5.7-1.6c0,0-8.1,3.1-9,3.6c-0.9,0.4-1.5,1.1-1.8,2.3c-0.3,1.2-4.8,12.5-5.6,14.1 s-5.9,12.4-5.7,15.9c0.2,3.5,2.4,18.7,2.7,23.1s-0.9,11.8-0.8,12.6c0.1,0.8,2,2.3,2.8,2.6s11.8,1.4,25,1.3s19.4-1.9,19.4-1.9 s5.6-4.7,5.8-5.2s-2.5-6.1-1.9-8.1c0.6-2,11.9-27.3,12.8-35.3c0.9-8-1.6-14.2-3-15.3s-11.6-5.4-14.9-8.8L290.9,128.7z" class="st4"/></g><path d="M288.4,133l-0.5-0.2c-0.1,0.2-7.8,18-8.7,27.5c-0.7,7,0.5,21,1.2,29.4c0.3,3.1,0.4,5.4,0.4,6 c-0.1,2.2,0,6.3,0,6.5c0.1,0,0.2,0,0.3,0l0.2,0c0,0-0.1-4.3,0-6.5c0-0.6-0.2-2.9-0.4-6c-0.7-8.4-1.9-22.4-1.2-29.3 C280.6,150.9,288.3,133.2,288.4,133z" class="st8"/><g><path d="M288.1,131.2c0,0-8.5,1.8-9.2,2.3c-0.8,0.5-0.2,1.5,0,2s2.3,4.3,2.8,4.3c0.4,0.1,6.6-6.3,6.6-6.3 s6.5,7.2,6.9,7.9c0.4,0.7,1.2,1.3,1.5,0.9c0.4-0.4,3-2.7,3.9-4.3c0.9-1.6,1-2.2,0.5-2.7C300.6,134.6,291.4,131.4,288.1,131.2z" class="st20"/><path d="M286.9,127.2c0,0,0.3,3,1.6,4.6l1.9,0.2c0,0,4.2-2,6.7-3.7l1.4,1.8c0,0-4.8,3.2-9,3.2l-1.8-0.2 c0,0-1.8-1.4-2.7-4.4L286.9,127.2z" class="st20"/><path d="M287.6,131.8c-4.5,2.4-10.9,10.6-10.9,11.1c0,0.5,0.6,2.6,3.1,4.8c2.5,2.1,4.6,2.8,5.4,1.6 c0.7-1.3,3.4-15.1,3.4-15.1s0.6,13.5,0.6,14.4c0.1,0.8,0.6,2,2.1,1.4c1.4-0.6,7-3.3,7.8-3.9c0.8-0.5,1-0.9,0.8-1.7 c-0.2-0.8-5.1-9.1-9.8-12.1L287.6,131.8z" class="st20"/><circle cx="288.9" cy="132.9" r="2" class="st20"/></g><path d="M307.5,120.5l-16.6,8.3c0,0,2.5,0.7,3.4,2.4c0.9,1.7,3.1,6.5,3.4,7c0.3,0.5,0.7,0.9,1.2,0.5 c0.5-0.4,11.1-10.1,11.3-10.4c0.2-0.3,0.5-0.5,0.4-1c-0.1-0.5-2.2-6.1-2.3-6.4C308.2,120.5,307.5,120.5,307.5,120.5z" class="st2"/><path d="M289.6,128.6c-0.8,0-1.5,0.1-1.9,0.4c-0.4,0.3-5.3,5.9-5.6,6.2s-0.6,0.2-0.6-0.2c0-0.4,1.5-7.5,1.6-7.8 c0.1-0.3,0.3-0.7,0.6-1c0.3-0.3,3.2-3.4,3.3-3.6s0.6-0.2,0.6-0.2S288.4,125.9,289.6,128.6z" class="st2"/></g><g><path d="M322.6,135.4c-1.6-0.6-6.4,5.2-7.4,14.4s0.1,18.3,0.6,18.8c0.5,0.5,8.1,1,9.8,2.5s17.8,15.6,18.3,16.4 c0.5,0.8,0.3,2.4,1,2.8c0.7,0.3,1.8,0.7,1.8,0.7s-0.6,0.5-0.4,0.8c0.2,0.3,1,1.3,1,1.3s-2.1,0.3-2.6,1.3s-0.9,3.3-2.1,4.5 c0,0-0.7,0-1.3,0.4c-0.6,0.4-6.3,7.2-6.7,7.7c-0.4,0.5-0.4,1.1,0,1.9c0.4,0.7,6.5,10.6,7.1,11.2c0.6,0.6,1.1,0.3,1.8,0 c0.7-0.3,8-4.4,8.5-4.8c0.5-0.4,0.4-1.3,0.4-1.3s2.9-0.5,3.5-1.2s0.6-1.7,0.6-1.7s5.1-2.5,6.8-5.6c1.8-3.1,3.2-7.9,3.5-10.1 c0.3-2.1,1.3-3.6,0.5-5c-0.8-1.4-22.3-27.3-24.5-30.7c-2.2-3.4-7.3-11.7-11.4-16.5C327.5,138.2,324.5,136.1,322.6,135.4z" class="st3"/><path d="M315.8,168.5c0.5,0.5,8.1,1,9.8,2.5s17.8,15.6,18.3,16.4c0.5,0.8,0.3,2.4,1,2.8c0.7,0.3,1.8,0.7,1.8,0.7 s-0.6,0.5-0.4,0.8c0.2,0.3,1,1.3,1,1.3s-2.1,0.3-2.6,1.3s-0.9,3.3-2.1,4.5c0,0-0.7,0-1.3,0.4c-0.6,0.4-6.3,7.2-6.7,7.7 c-0.4,0.5-0.4,1.1,0,1.9c0.4,0.7,6.5,10.6,7.1,11.2c0.6,0.6,1.1,0.3,1.8,0c0.7-0.3,8-4.4,8.5-4.8c0.5-0.4,0.4-1.3,0.4-1.3 s2.9-0.5,3.5-1.2s0.6-1.7,0.6-1.7s5.1-2.5,6.8-5.6c1.8-3.1,3.2-7.9,3.5-10.1c0.3-2.1,1.3-3.6,0.5-5c-0.8-1.4-22.3-27.3-24.5-30.7 c-2.2-3.4-7.3-11.7-11.4-16.5c-4.1-4.8-7.1-6.9-8.9-7.5l-1-0.5" class="st4"/></g><path d="M342.6,198.8c0,0,4.5,5.9,9.9,15" class="st4"/><path d="M347.3,192.9c0,0,5.8-2,11.4-2.7" class="st4"/><path d="M346.7,190.8c0,0,2.3-1.9,6.2-3.9" class="st4"/><path d="M312.1,92.2c0,0-4.9-4.7-10.9-8.1" class="st4"/><g><path d="M279,94.7c0,3.5-2.6,6.3-5.7,6.3c-3.5,0-5.7-4-5.7-7.5c0-3.5,2.6-4.4,5.7-4.4C277.2,89,279,91.2,279,94.7z" class="st31"/><path d="M283.5,94.7c0,3.5,3.7,6.3,7.9,6.3c4.9,0,7.9-4,7.9-7.5c0-3.5-3.5-4.4-7.9-4.4 C286,89,283.5,91.2,283.5,94.7z" class="st31"/><path d="M279,94.7c0,0,1.7-1.7,4.5,0" class="st31"/><line x1="299.2" x2="309.1" y1="92.6" y2="94.3" class="st31"/></g></g></g></svg>