<?xml version="1.0" encoding="utf-8"?>
<!-- Generator: Adobe Illustrator 24.1.3, SVG Export Plug-In . SVG Version: 6.00 Build 0)  -->
<svg version="1.1" id="Capa_1" xmlns="http://www.w3.org/2000/svg" xmlns:xlink="http://www.w3.org/1999/xlink" x="0px" y="0px"
	 viewBox="0 0 452 452" style="enable-background:new 0 0 452 452;" xml:space="preserve">
<style type="text/css">
	.st0{fill:#FFFFFF;}
</style>
<path class="st0" d="M440.8,380.4l-50.5-50.5l24.5-24.5c3.9-3.9,3.9-10.2,0-14.1c-3.9-3.9-10.2-3.9-14.1,0l-9.5,9.5l-42.4-42.4
	c6.6-23.4,9.9-47.6,9.9-72l0-153.7c0-4.8-3.4-8.9-8.1-9.8C236.9,0.4,121.7,0.4,8.1,22.8c-4.7,0.9-8.1,5-8.1,9.8v153.7
	c0,55.1,16.7,108.1,48.4,153.2c31.6,45.1,75.7,78.9,127.5,97.7c1.1,0.4,2.3,0.6,3.4,0.6c1.2,0,2.3-0.2,3.4-0.6
	c40.4-14.7,76.7-38.9,105.7-70.5l18.3,18.3l-9.5,9.5c-3.9,3.9-3.9,10.2,0,14.1c2,2,4.5,2.9,7.1,2.9c2.6,0,5.1-1,7.1-2.9l24.5-24.5
	l50.5,50.5c7.3,7.3,16.9,11.3,27.2,11.3s19.9-4,27.2-11.3c7.3-7.3,11.3-16.9,11.3-27.2C452,397.3,448,387.6,440.8,380.4z
	 M359.9,331.9l-4,4L162.9,142.7l45.4,3.5L377,314.9L359.9,331.9z M303.6,186.3c0,8.5-0.5,17-1.5,25.4l-82.2-82.2
	c-1.7-1.7-3.9-2.7-6.3-2.9l-76.1-5.9c-2.9-0.2-5.8,0.8-7.8,2.9c-2.1,2.1-3.1,4.9-2.9,7.8l5.9,76.1c0.2,2.4,1.2,4.6,2.9,6.3l114,114
	c-19.6,22-43.2,39.3-70.2,51.5c-34.4-15.6-64.1-40.2-85.9-71.3C68.3,272.1,55,230.1,55,186.3V75.9c82.5-15.8,166.1-15.8,248.6,0
	L303.6,186.3L303.6,186.3z M179.3,417.2c-46.4-17.6-86-48.4-114.6-89.1C35.5,286.3,20,237.3,20,186.3V40.9
	c105.8-19.8,212.9-19.8,318.6,0v145.4c0,18.8-2.1,37.4-6.3,55.6l-12.6-12.6c2.6-14,4-28.5,4-42.9l0-118.7c0-4.8-3.3-8.8-8-9.8
	c-90.4-18.4-182.2-18.4-272.6,0c-4.7,0.9-8,5-8,9.8v118.7c0,47.9,14.5,93.9,42,133.1c24.8,35.4,58.8,63,98.4,79.9
	c1.3,0.5,2.6,0.8,3.9,0.8c1.3,0,2.7-0.3,3.9-0.8c31-13.3,58-32.6,80.4-57.4l10.6,10.6C248.2,381.2,215.6,403.4,179.3,417.2z
	 M152.3,202.3l-3.5-45.4L341.9,350l-21,21L152.3,202.3z M376.1,344l6.3,6.3l-15.3,36.8L350,370.1L376.1,344z M382.4,402.4l15.3-36.8
	l11.2,11.2l-15.3,36.8L382.4,402.4z M426.6,420.6L426.6,420.6c-3.5,3.5-8.1,5.4-13,5.4c-1.1,0-2.3-0.1-3.4-0.3l14-33.6l2.4,2.4
	c3.5,3.5,5.4,8.1,5.4,13S430.1,417.1,426.6,420.6z"/>
</svg>
